<svg width="38" height="39" viewBox="0 0 38 39" fill="none" xmlns="http://www.w3.org/2000/svg">
<path d="M10 35.3125C11.1046 35.3125 12 34.4171 12 33.3125C12 32.2079 11.1046 31.3125 10 31.3125C8.89543 31.3125 8 32.2079 8 33.3125C8 34.4171 8.89543 35.3125 10 35.3125Z" fill="white"/>
<path d="M23 35.3125C24.1046 35.3125 25 34.4171 25 33.3125C25 32.2079 24.1046 31.3125 23 31.3125C21.8954 31.3125 21 32.2079 21 33.3125C21 34.4171 21.8954 35.3125 23 35.3125Z" fill="white"/>
<path d="M5.2875 15.3125H27.7125L24.4125 26.8625C24.2948 27.2817 24.0426 27.6506 23.6948 27.9126C23.3471 28.1745 22.9229 28.315 22.4875 28.3125H10.5125C10.0771 28.315 9.65293 28.1745 9.30515 27.9126C8.95738 27.6506 8.70524 27.2817 8.5875 26.8625L4.0625 11.0375C4.0027 10.8284 3.8764 10.6446 3.70271 10.5137C3.52903 10.3829 3.31744 10.3123 3.1 10.3125H1" stroke="white" stroke-width="2" stroke-linecap="round" stroke-linejoin="round"/>
<rect x="15.25" y="1.5625" width="21.5" height="21.5" rx="10.75" fill="white"/>
<rect x="15.25" y="1.5625" width="21.5" height="21.5" rx="10.75" stroke="#33BCA1" stroke-width="1.5"/>
<path d="M23.0049 16.3125V15.5325V15.1305C23.0049 14.6865 23.0869 14.3045 23.2509 13.9845C23.4149 13.6605 23.6329 13.3785 23.9049 13.1385C24.1769 12.8985 24.4749 12.6865 24.7989 12.5025C25.1269 12.3145 25.4509 12.1385 25.7709 11.9745C26.0949 11.8065 26.3929 11.6345 26.6649 11.4585C26.9369 11.2785 27.1549 11.0785 27.3189 10.8585C27.4869 10.6385 27.5709 10.3765 27.5709 10.0725C27.5709 9.6845 27.4329 9.3685 27.1569 9.1245C26.8849 8.8765 26.5149 8.7525 26.0469 8.7525C25.5509 8.7525 25.1409 8.8945 24.8169 9.1785C24.4969 9.4625 24.3069 9.8625 24.2469 10.3785H22.8309C22.8389 9.8505 22.9649 9.3705 23.2089 8.9385C23.4529 8.5065 23.8149 8.1625 24.2949 7.9065C24.7749 7.6465 25.3729 7.5165 26.0889 7.5165C26.7089 7.5165 27.2429 7.6245 27.6909 7.8405C28.1429 8.0525 28.4909 8.3505 28.7349 8.7345C28.9829 9.1145 29.1069 9.5585 29.1069 10.0665C29.1069 10.5105 29.0249 10.8905 28.8609 11.2065C28.7009 11.5225 28.4869 11.7965 28.2189 12.0285C27.9549 12.2565 27.6629 12.4585 27.3429 12.6345C27.0269 12.8105 26.7089 12.9765 26.3889 13.1325C26.0729 13.2845 25.7809 13.4445 25.5129 13.6125C25.2489 13.7765 25.0349 13.9645 24.8709 14.1765C24.7109 14.3885 24.6309 14.6425 24.6309 14.9385V15.0645H29.1249V16.3125H23.0049Z" fill="#33BCA1"/>
</svg>
