<svg width="16" height="16" viewBox="0 0 16 16" fill="none" xmlns="http://www.w3.org/2000/svg">
<g clip-path="url(#clip0_382_772)">
<path fill-rule="evenodd" clip-rule="evenodd" d="M8 0C12.4183 0 16 3.58173 16 8C16 12.4183 12.4183 16 8 16C3.58173 16 0 12.4183 0 8C0 3.58173 3.58173 0 8 0Z" fill="white"/>
<path d="M9.04149 15.933V9.75237H10.785L11.0161 7.5771H9.04149L9.04443 6.48827C9.04443 5.92091 9.09835 5.61705 9.91378 5.61705H11.0038V3.44141H9.25998C7.16529 3.44141 6.42813 4.4966 6.42813 6.27136V7.57726H5.12237V9.75274H6.42813V15.8453C6.93683 15.9466 7.46273 16.0001 8.00119 16.0001C8.34905 16.0001 8.69654 15.9777 9.04149 15.933Z" fill="#1B6392"/>
</g>
<defs>
<clipPath id="clip0_382_772">
<rect width="16" height="16" fill="white"/>
</clipPath>
</defs>
</svg>
