<svg width="250" height="355" viewBox="0 0 250 355" fill="none" xmlns="http://www.w3.org/2000/svg">
<path fill-rule="evenodd" clip-rule="evenodd" d="M-253.327 -587.75C-266.358 -586.425 -279.173 -585.109 -291.561 -583.882C-294.639 -583.54 -297.716 -583.198 -300.722 -582.859C-303.719 -582.305 -306.719 -581.822 -309.644 -581.271C-315.494 -580.168 -321.204 -579.143 -326.698 -578.127C-331.028 -575.002 -347.844 -574.815 -351.413 -568.917C-358.076 -568.356 -360.442 -568.187 -366.425 -565.066C-364.864 -569.084 -373.538 -563.193 -373.084 -566.159C-377.928 -563.3 -385.006 -564.088 -386.614 -561.218C-379.349 -562.882 -375.375 -565.921 -372.341 -563.817C-379.259 -562.455 -385.788 -558.592 -391.227 -559.735C-396.309 -557.442 -404.893 -551.122 -409.95 -551.706C-409.405 -548.924 -416.124 -549.727 -418.237 -546.908C-418.262 -545.757 -415.98 -546.21 -417.452 -545.287C-421.213 -542.329 -427.616 -542.425 -430.521 -539.646C-429.175 -540.133 -427.901 -540.616 -427.782 -539.471C-430.941 -537.616 -431.431 -539.034 -434.59 -537.179C-434.077 -535.186 -429.46 -538.324 -427.235 -538.415C-425.837 -541.132 -413.336 -546.606 -411.15 -545.905C-414.498 -543.395 -415.068 -541.502 -419.604 -541.676C-419.671 -539.803 -416.937 -541.497 -416.387 -540.37C-412.783 -541.883 -413.505 -543.723 -409.542 -545.252C-409.612 -543.451 -411.703 -541.856 -412.422 -540.101C-408.455 -541.558 -410.479 -543.56 -406.874 -545.074C-405.412 -544.486 -409.332 -541.881 -405.919 -542.812C-405.58 -543.329 -405.164 -543.706 -404.671 -543.942C-404.584 -543.586 -404.498 -543.23 -404.34 -542.877C-403.951 -542.174 -403.488 -541.402 -403.1 -540.699C-403.608 -540.822 -403.979 -541.094 -404.215 -541.588C-407.153 -539.598 -407.814 -539.93 -410.957 -539.442C-410.327 -538.102 -405.418 -539.381 -402.867 -540.277C-401.941 -538.733 -401.087 -537.187 -400.229 -535.568C-400.152 -535.427 -400.355 -535.131 -400.63 -534.833C-401.695 -534.501 -402.686 -534.101 -403.747 -533.698C-404.965 -533.576 -406.176 -533.311 -407.062 -532.124C-410.236 -530.628 -413.35 -529.422 -415.849 -530.757C-417.559 -526.877 -432.094 -521.895 -436.062 -522.236C-435.716 -520.812 -437.587 -519.081 -439.825 -517.552C-440.686 -517.516 -441.475 -517.484 -442.343 -517.592C-443.497 -517.689 -443.889 -516.738 -443.552 -515.529C-445.598 -514.583 -447.378 -514.15 -447.686 -514.641C-449.263 -512.779 -450.915 -510.986 -452.708 -509.115C-454.12 -508.482 -455.532 -507.849 -456.941 -507.144C-456.946 -507.287 -456.881 -507.434 -456.815 -507.58C-461.533 -505.158 -465.888 -502.679 -470.095 -500.062C-470.164 -499.987 -470.236 -499.984 -470.304 -499.909C-479.92 -494.194 -489.213 -487.63 -497.762 -480.45C-501.684 -477.916 -505.819 -475.302 -510.378 -472.527C-509.7 -471.764 -510.089 -470.741 -511.053 -469.695C-515.626 -469.004 -520.097 -464.076 -524.101 -460.029C-527.221 -458.966 -530.174 -457.335 -533.037 -455.277C-533.259 -455.412 -533.48 -455.546 -533.707 -455.825C-535.445 -454.387 -535.637 -453.804 -535.404 -453.382C-536.17 -452.776 -536.861 -452.1 -537.556 -451.497C-540.608 -448.783 -543.577 -445.786 -546.554 -443.003C-549.454 -440.08 -552.359 -437.301 -555.432 -435.09C-565.288 -428.215 -575.43 -421.328 -585.035 -413.601C-594.27 -405.601 -602.891 -396.692 -608.1 -385.191C-609.803 -382.892 -606.639 -382.878 -607.992 -380.809C-613.894 -373.953 -619.133 -364.966 -624.729 -355.894C-629.735 -346.485 -635.244 -337.057 -639.909 -328.094C-647.017 -315.58 -656.271 -304.56 -660.805 -290.641C-663.203 -282.491 -664.844 -275.162 -665.138 -268.32C-665.361 -261.48 -664.528 -255.187 -662.417 -249.307C-666.953 -237.186 -660.734 -220.545 -668.55 -209.512C-668.082 -206.871 -665.343 -206.695 -666.599 -202.258C-667.115 -199.074 -668.566 -199.374 -669.509 -197.825C-666.178 -197.243 -666.61 -199.022 -664.138 -196.607C-663.729 -205.899 -662.243 -209.986 -663.448 -218.349C-662.601 -220.468 -661.401 -221.021 -660.75 -224.427C-661.228 -243.1 -660.418 -265.422 -653.485 -289.216C-646.514 -312.078 -630.989 -331.48 -627.001 -348.179C-624.684 -351.294 -622.685 -348.141 -620.465 -350.101C-618.395 -359.245 -610.291 -363.244 -605.204 -372.44C-601.366 -378.78 -601.107 -386.484 -596.141 -393.374C-590.885 -400.204 -585.615 -404.95 -580.067 -409.922C-574.367 -414.686 -568.386 -419.604 -561.56 -426.714C-561.132 -426.804 -560.776 -426.89 -560.348 -426.98C-562.94 -423.566 -565.43 -421.163 -569.235 -415.759C-570.556 -416.424 -567.48 -418.563 -568.233 -419.395C-572.025 -415.429 -574.327 -411.955 -576.722 -408.981C-579.116 -406.007 -581.675 -403.529 -585.609 -401.283C-583.103 -399.804 -587.811 -395.369 -586.58 -393.407C-582.528 -398.03 -577.452 -403.99 -572.999 -404.101C-575.188 -399.626 -579.165 -400.181 -579.202 -397.592C-574.146 -400.531 -571.479 -403.876 -568.98 -407.789C-566.48 -411.702 -563.693 -415.627 -558.989 -420.133C-558.319 -419.586 -558.362 -418.865 -558.473 -418.07C-554.617 -420.457 -552.143 -425.016 -549.91 -428.414C-548.791 -429.179 -547.75 -430.085 -546.706 -430.918C-547.041 -430.329 -547.304 -429.743 -547.418 -429.02C-545.941 -429.799 -544.4 -430.797 -542.916 -431.433C-543.248 -430.773 -543.44 -430.19 -543.354 -429.834C-542.597 -430.656 -541.836 -431.406 -541.073 -432.084C-540.29 -432.26 -539.503 -432.364 -538.848 -432.175C-541.771 -426.304 -543.06 -420.93 -544.069 -415.713C-545.185 -414.876 -546.31 -414.255 -547.297 -413.783L-545.952 -412.544C-545.338 -413.36 -544.785 -413.886 -544.3 -414.337C-544.411 -413.541 -544.597 -412.815 -544.708 -412.02C-545.052 -411.646 -545.397 -411.272 -545.815 -410.968C-546.488 -411.587 -549.381 -410.246 -547.333 -409.395C-546.369 -410.442 -545.66 -410.686 -545.071 -410.351C-546.074 -408.512 -546.635 -406.404 -548.011 -404.91C-549.526 -403.266 -552.014 -402.589 -553.756 -401.223C-556.123 -399.329 -555.902 -393.946 -553.053 -392.84C-552.102 -392.448 -551.295 -392.05 -550.413 -391.583C-551.206 -389.896 -552.144 -388.204 -553.152 -386.509C-556.194 -387.032 -559.262 -386.474 -562.293 -384.984C-562.715 -384.751 -562.727 -383.313 -562.692 -382.451C-562.677 -382.092 -562.295 -381.533 -561.93 -381.404C-561.784 -381.338 -561.637 -381.272 -561.419 -381.209C-562.393 -378.653 -563.722 -376.01 -566.71 -375.241C-565.891 -374.555 -565.087 -374.229 -564.094 -374.557C-562.881 -376.548 -561.881 -378.458 -559.747 -380.775C-559.532 -380.783 -559.317 -380.792 -559.248 -380.867C-558.216 -381.988 -557.016 -382.54 -555.813 -383.021C-560.485 -377.725 -564.382 -372.82 -567.274 -367.956C-567.948 -366.85 -568.478 -365.75 -569.083 -364.718C-569.232 -364.856 -569.382 -364.994 -569.531 -365.131C-569.878 -364.829 -570.225 -364.528 -570.572 -364.226C-570.273 -363.951 -570.046 -363.672 -569.75 -363.469C-571.55 -360.016 -572.925 -356.724 -574.087 -353.513C-575.189 -352.317 -576.293 -351.194 -577.262 -350.291C-578.077 -349.107 -578.741 -347.786 -579.478 -346.462C-595.999 -326.803 -611.704 -301.283 -622.863 -273.576C-635.353 -243.299 -642.369 -211.017 -644.145 -184.198C-646.766 -177.98 -648.684 -172.149 -649.717 -165.78C-650.822 -159.408 -651.55 -152.619 -651.22 -144.58C-658.275 -136.023 -658.614 -119.76 -657.177 -104.002C-656.8 -100.063 -656.423 -96.1243 -656.051 -92.329C-655.608 -88.5366 -655.096 -84.8189 -654.812 -81.3795C-654.311 -74.4261 -654.279 -68.388 -655.604 -63.8761C-645.892 -56.7252 -647.147 -31.2222 -649.94 -22.1925C-646.522 -21.2542 -644.862 -17.5836 -644.108 -13.2288C-643.282 -8.87692 -643.145 -3.77785 -643.268 0.253372C-644.548 0.593467 -647.6 -5.46447 -645.9 0.936505C-645.414 4.00818 -643.99 3.66217 -642.999 5.05943C-644.305 8.27645 -644.789 12.2507 -647.15 14.2887C-646.122 20.0702 -643.738 20.3319 -642.71 26.1134C-644.908 25.1251 -647.228 24.6451 -648.874 21.3334C-652.433 13.4269 -649.995 11.5295 -650.043 6.85815C-652.241 7.59537 -652.12 10.5382 -653.951 6.22754C-648.915 2.78569 -657.725 -3.39565 -653.693 -8.52188C-652.857 -5.68026 -651.905 -3.49052 -650.437 -2.75986C-652.76 -8.56015 -655.064 -15.6554 -656.999 -20.7526C-656.644 -19.1135 -656.687 -16.6673 -657.574 -19.0035C-657.482 9.53584 -651.222 35.9529 -641.438 60.6437C-631.579 85.4033 -618.265 108.511 -602.577 131.666C-602.855 135.416 -600.122 140.696 -597.825 145.85C-586.687 157.976 -579.761 167.326 -569.442 164.746C-581.197 149.842 -591.932 138.779 -606.835 111.997C-607.97 105.357 -607.206 99.4302 -603.184 95.8143C-589.159 115.226 -580.584 140.254 -564.161 156.764C-561.764 159.11 -559.958 159.324 -557.92 161.685C-545.468 176.057 -540.661 184.559 -532.411 194.646C-516.292 214.26 -494.349 230.4 -474.654 246.056C-470.272 249.472 -468.127 256.214 -461.075 256.356C-466.159 251.604 -471.536 246.719 -476.877 242.697C-482.153 238.527 -487.124 234.777 -491.533 232.441C-496.285 227.028 -502.767 219.745 -509.952 212.85C-516.723 205.506 -524.204 198.408 -529.784 192.094C-532.018 188.447 -534.316 185.018 -536.607 181.733C-538.83 178.373 -541.044 175.228 -543.327 172.159C-548.033 166.097 -552.59 160.172 -557.368 154.113C-566.924 141.995 -576.739 128.809 -585.541 110.549C-582.407 106.322 -585.577 102.641 -588.343 96.5717C-583.401 94.3559 -583.765 88.9785 -586.557 82.2628C-589.629 79.2253 -588.695 86.2329 -591.27 83.0313C-591.743 78.5212 -591.92 74.2146 -588.634 71.923C-586.98 75.45 -584.599 79.1628 -584.864 81.4744C-581.614 78.3215 -586.026 70.6656 -581.23 68.384C-577.601 74.4902 -573.486 80.1451 -569.453 85.5876C-565.138 90.8748 -560.9 96.0215 -556.597 101.022C-547.847 111.016 -539.465 120.81 -532.233 132.376C-531.981 136.751 -533.697 140.489 -532.57 145.188C-527.758 145.062 -532.381 135.761 -529.933 132.354C-526.244 134.647 -522.571 138.307 -518.769 141.602C-517.579 142.56 -516.39 143.517 -515.272 144.478C-515.191 144.691 -515.111 144.903 -515.027 145.187C-513.768 149.593 -512.049 154.699 -507.301 156.517C-506.497 156.844 -505.761 157.245 -505.029 157.575C-502.306 160.842 -499.596 163.823 -496.897 166.516C-496.819 166.657 -496.742 166.797 -496.661 167.009C-496.219 167.279 -495.917 167.626 -495.546 167.898C-495.023 168.38 -494.494 169.006 -493.899 169.485C-490.953 172.959 -490.621 177.546 -490.502 182.215C-490.434 183.866 -489.465 184.689 -487.941 185.057C-487.067 185.309 -486.117 185.702 -485.447 186.249C-483.809 187.62 -480.957 188.797 -483.788 191.646C-483.111 194.134 -481.12 195.347 -479.003 196.123C-475.062 197.543 -472.246 199.584 -472.342 204.261C-472.379 205.126 -471.973 206.259 -471.375 206.81C-467.797 209.899 -465.45 214.548 -460.507 215.855C-457.311 216.658 -457.851 219.269 -457.406 221.335C-456.602 221.662 -455.514 221.905 -455.278 222.399C-452.833 229.416 -448.093 234.542 -442.719 239.354C-439.883 241.898 -437.127 244.23 -435.464 247.972C-433.173 252.983 -431.06 258.936 -423.278 257.61C-422.279 257.425 -420.916 259.095 -419.798 260.055C-418.005 261.707 -416.355 263.365 -414.699 265.167C-413.872 266.067 -411.97 266.852 -413.703 268.433C-414.882 269.488 -415.494 272.101 -418.016 270.192C-418.758 269.647 -419.708 269.255 -420.641 269.293C-421.503 269.328 -422.341 269.938 -423.118 270.257C-422.814 270.676 -422.584 271.026 -422.279 271.445C-419.781 274.506 -416.256 276.303 -412.676 275.94C-410.816 275.72 -409.472 275.162 -407.978 276.538C-405.584 278.813 -402.84 280.857 -402.756 284.664C-402.639 289.261 -400.194 285.781 -398.6 286.076C-395.556 286.67 -391.537 288.231 -390.142 290.69C-388.673 293.218 -386.805 294.939 -384.739 296.22C-387.49 295.757 -390.244 295.223 -392.944 294.256C-409.407 289.035 -427.431 275.539 -443.748 270.384C-446.408 263.376 -448.615 269.146 -454.822 261.564C-456.865 262.582 -460.766 263.892 -459.523 266.142C-459.769 267.159 -458.789 268.269 -457.809 269.379C-448.624 272.454 -443.157 277.765 -434.525 279.64C-416.457 295.939 -395.388 304.781 -372.777 310.9C-372.679 311.543 -372.584 312.114 -372.626 312.835C-371.696 312.725 -370.999 312.193 -370.595 311.529C-370.086 311.652 -369.65 311.778 -369.141 311.901C-366.962 312.458 -364.785 312.944 -362.608 313.43C-361.768 314.618 -361.001 315.809 -360.299 317.146C-359.122 319.542 -356.901 321.105 -353.525 321.038C-343.901 320.787 -343.82 321 -338.44 329.479C-337.979 330.179 -337.732 330.96 -337.484 331.74C-335.753 331.885 -334.709 332.777 -334.426 334.419C-332.138 334.109 -330.132 330.432 -327.464 334.133C-326.093 336.018 -324.156 337.664 -322.096 338.802C-321.214 339.269 -320.404 339.739 -319.591 340.281C-319.95 340.296 -320.234 340.379 -320.518 340.463C-319.938 340.583 -319.211 340.769 -318.557 340.958C-317.591 341.709 -316.692 342.607 -315.918 343.941C-314.37 346.61 -311.821 343.917 -309.927 342.761C-304.361 346.99 -296.579 342.141 -291.197 347.169C-287.39 347.085 -283.397 346.274 -279.77 347.06C-275.634 347.969 -271.891 349.829 -267.396 348.997C-264.115 348.359 -262.031 350.071 -260.969 353.191C-260.802 353.759 -258.978 354.404 -258.559 354.099C-255.555 351.963 -252.631 353.137 -249.656 353.806C-245.284 349.96 -239.794 350.597 -234.617 350.601C-229.512 350.607 -224.122 348.804 -219.369 352.492C-218.478 353.174 -216.501 352.302 -215.989 350.771C-215.344 348.947 -214.99 347.064 -212.472 347.104C-210.531 347.096 -208.668 346.948 -206.736 346.725C-198.861 345.899 -190.614 347.142 -183.168 342.883C-182.255 342.342 -180.428 343.058 -179.119 343.436C-177.953 343.819 -177.098 345.366 -175.578 343.866C-173.301 341.543 -170.263 341.994 -167.454 342.095C-161.408 342.278 -158.683 342.094 -156.299 340.63C-152.72 338.471 -148.766 336.727 -146.111 333.095C-145.09 331.687 -143.291 329.96 -141.715 329.823C-137.346 329.428 -133.362 328.402 -129.715 326.167C-122.215 326.723 -116.189 322.881 -110.077 319.395C-109.305 318.932 -107.899 318.155 -107.983 317.871C-109.645 312.403 -103.938 311.306 -102.282 307.859C-100.626 304.412 -99.1192 300.827 -97.6126 297.243C-96.0601 296.532 -94.4355 295.818 -92.8111 295.104C-92.2998 295.299 -91.8752 295.138 -91.6117 294.552C-90.0561 293.913 -88.3571 293.268 -86.7298 292.626C-84.5658 294.551 -82.5719 295.835 -78.9996 293.531C-75.2178 291.076 -70.4413 290.089 -66.0383 288.758C-64.5457 288.337 -63.2713 287.854 -62.8966 286.472C-62.333 284.436 -61.9523 283.198 -59.3125 284.456C-57.2615 285.378 -54.1958 284.749 -52.5608 286.048C-48.6183 289.266 -46.7194 284.73 -43.7913 284.251C-42.2899 284.045 -42.5334 281.611 -43.3642 280.638C-45.5546 278.068 -48.2268 276.021 -50.4143 273.522C-52.5271 271.092 -53.9036 272.587 -56.1681 273.47C-60.6253 275.235 -65.4727 274.499 -70.2364 274.047C-70.5982 273.99 -70.9058 273.5 -71.2765 273.227C-70.9323 272.854 -70.597 272.265 -70.2382 272.25C-66.4429 271.879 -65.1604 268.088 -62.3482 266.534C-61.0138 265.761 -58.6447 269.186 -57.9699 266.355C-56.9263 261.998 -54.0541 260.155 -50.3777 258.638C-46.067 256.808 -41.7535 255.049 -37.5982 252.937C-33.018 250.664 -28.5245 248.036 -24.025 245.55C-22.8284 244.926 -21.437 243.791 -20.2827 243.887C-15.3754 244.333 -11.8806 241.889 -9.36621 238.335C-6.71705 234.559 -3.2001 234.415 0.750571 234.325C3.12213 234.3 5.64896 234.556 7.36093 232.472C10.7161 228.38 15.8282 226.805 19.9482 223.832C21.7643 222.535 19.025 222.36 18.0714 221.896C17.3389 221.566 16.738 220.944 16.0714 220.468C16.4185 220.166 16.8257 219.574 17.1845 219.559C22.789 219.473 28.2511 217.667 33.9014 220.455C37.791 222.381 41.9727 220.915 45.8921 218.31C52.3995 213.945 53.3838 213.401 55.2751 206.925C56.8487 201.468 57.8155 200.494 62.7621 200.147C67.0628 199.827 71.4618 200.15 74.3056 195.863C74.7787 195.125 75.7451 194.151 76.5347 194.118C83.2128 193.916 86.3803 188.754 90.1632 184.572C92.9823 181.437 96.7581 178.838 97.5747 174.203C101.868 171.942 104.729 168.086 108.344 165.062C112.377 161.733 112.402 155.333 118.083 153.59C119.007 153.336 118.673 152.2 117.432 151.747C116.556 151.424 115.554 151.537 114.675 151.142C114.382 151.01 114.086 150.806 113.793 150.674C115.496 148.376 117.188 145.79 118.81 143.279C117.158 145.072 114.154 147.209 111.584 149.399C111.366 149.336 111.216 149.198 111.001 149.207C108.686 148.871 108.039 150.623 107.548 152.656C107.239 153.891 106.155 155.517 105.096 155.992C104.318 156.311 103.69 156.769 102.987 157.157C102.978 156.942 103.038 156.652 103.098 156.361C102.473 156.89 102.203 157.333 101.934 157.775C98.2298 160.372 95.5806 164.147 91.9513 166.812C89.2973 168.719 86.6965 171.917 83.8972 172.032C80.4549 172.245 76.9066 169.874 73.4054 168.651C72.0928 168.202 70.7831 167.824 69.4676 167.303C69.0311 167.177 68.6546 166.761 68.3527 166.414C67.2113 164.879 67.8326 166.004 69.397 165.58C72.9534 164.644 73.7351 162.67 73.5309 159.443C73.3325 156.36 74.8752 157.159 76.9173 157.867C80.1973 158.954 78.474 155.502 79.4347 154.384C80.3236 153.269 81.2479 153.016 81.4474 154.374C81.9228 158.955 84.3104 157.563 86.7784 156.384C89.1006 158.661 91.9028 158.618 94.7444 157.783C95.1722 157.693 95.7317 157.311 95.8605 156.946C95.9923 156.653 95.5379 156.096 95.2391 155.821C94.193 154.857 93.1981 153.388 91.9661 153.151C86.4552 152.011 84.2384 148.795 84.0117 143.268C85.003 141.142 85.4919 139.037 84.9217 137.407C86.2372 137.928 87.469 138.165 88.8152 137.679C88.6145 138.047 88.4798 138.268 88.411 138.342C88.7581 138.041 89.0306 137.67 89.3777 137.368C90.0119 137.055 90.5685 136.6 91.1822 135.784C91.7958 134.968 93.2431 135.197 94.5557 135.646C94.0826 136.384 93.5379 137.126 93.0707 138.008C90.658 137.028 85.8308 142.043 88.7136 142.213C89.0877 137.308 91.3751 142.247 92.3387 141.201C93.1324 139.515 94.871 138.078 96.5318 136.5C99.5305 137.743 102.52 138.77 105.576 139.652C110.45 141.034 115.041 140.773 118.148 135.901C121.052 131.324 125.312 129.999 130.443 130.651C131.816 130.811 133.311 130.462 134.756 130.618C135.404 130.664 135.976 130.568 136.55 130.545C136.436 131.268 136.325 132.064 136.073 132.937C136.899 132.04 137.509 131.152 138.048 130.268C138.476 130.178 138.901 130.017 139.254 129.859C136.687 135.644 132.26 141.649 127.477 147.741C123.646 152.499 119.674 157.335 115.978 161.873C112.132 166.272 108.415 170.307 105.844 174.223C107.077 172.735 104.372 178.669 101.566 180.366C106.519 180.163 115.009 171.547 121.774 169.975C124.791 166.4 127.362 164.21 129.928 163.673C131.014 162.119 131.751 160.794 131.922 159.709C137.017 161.226 150.065 139.265 151.602 143.444C153.025 139.575 153.386 136.109 156.333 130.812C155.281 129.705 154.22 131.905 153.148 130.295C154.762 127.569 155.675 125.303 155.26 123.954C151.758 129.705 154.005 131.914 151.481 136.978C150.112 135.165 147.617 137.424 147.495 139.73C148.391 142.282 149.89 136.756 150.87 137.866C149.924 139.343 151.721 139.341 150.075 141.278C148.489 137.676 145.219 149.098 141.307 150.121C140.413 149.367 140.016 148.449 140.46 146.993C145.599 140.814 141.727 142.842 142.591 139.356C144.193 136.342 145.618 137.794 147.187 135.716C145.02 133.72 147.832 128.644 150.487 125.012C152.006 119.989 152.153 114.806 152.53 109.974C152.734 109.678 152.94 109.454 153.144 109.158C155.472 106.33 157.278 103.021 159.233 99.8491C159.706 99.1108 159.234 98.1236 158.011 98.1018C155.206 98.0731 151.926 96.9853 149.783 99.0863C146.88 101.937 142.731 104.193 143.379 109.486C143.498 110.632 142.707 112.39 141.732 113.149C140.338 114.213 138.869 115.207 137.474 116.271C137.322 116.062 137.164 115.709 137.074 115.281C136.748 116.085 136.412 116.674 136.077 117.263C133.842 118.865 131.532 120.397 129.226 122.002C125.291 120.725 121.29 119.595 117.418 118.1C116.028 117.51 114.793 117.201 113.447 117.688C113.094 117.846 112.546 118.516 112.546 118.516C116.996 123.582 110.93 124.693 109.164 127.21C107.877 129.132 105.583 129.298 103.424 129.243C102.221 126.201 108.128 124.736 106.548 121.278C106.824 120.979 107.168 120.606 107.44 120.235C110.16 118.182 113.467 114.667 115.967 110.754C118.676 106.689 121.035 102.854 122.54 100.994C121.906 101.308 120.959 99.2618 121.217 98.5322C124.152 96.4707 125.095 86.1507 126.01 90.9303C128.037 87.7556 126.973 86.3613 126.612 84.5787C123.982 92.3077 119.273 98.4682 118.854 104.021C115.447 105.096 113.491 109.993 111.341 113.676C110.464 115.078 109.724 116.331 108.901 117.299C108.806 116.728 108.418 116.025 108.179 115.459C108.098 115.247 107.375 115.133 107.165 115.285C106.322 115.751 105.708 116.567 104.858 116.89C103.584 117.373 102.023 117.869 101.097 116.325C100.401 115.131 100.058 113.779 101.007 112.374C101.752 111.265 102.279 110.093 102.878 108.919C104.308 108.716 105.967 108.864 106.943 108.105C107.849 107.421 108.212 105.752 108.375 104.451C108.582 102.501 108.287 100.572 108.785 98.6826C109.182 99.601 109.08 100.612 110.278 98.2619C110.242 97.4006 110.345 96.3898 110.591 95.3732C110.791 95.0055 110.848 94.6437 110.905 94.2818C112.551 88.8221 117.098 82.2368 117.648 78.1161C116.1 80.696 114.693 83.1982 113.211 85.6316C113.224 84.1931 113.165 82.7576 113.031 81.2532C113.016 80.8944 112.496 80.4843 112.132 80.3554C111.985 80.2895 111.423 80.6002 111.288 80.8214C110.007 82.8871 110.164 84.9656 111.538 86.9224C111.691 87.1318 111.981 87.1918 112.274 87.3236C111.468 88.7227 110.588 90.0529 109.78 91.3802C108.794 90.1265 107.667 88.9505 107.889 87.3596C108.109 85.697 107.966 83.9773 107.752 82.2606C109.198 80.6915 110.565 78.9817 111.35 77.0802C109.751 76.6425 112.647 73.6479 110.485 73.5208C109.974 73.3261 109.478 73.4903 108.987 73.7979C110.376 70.8651 110.046 68.0747 109.854 65.1348C109.656 62.0514 110.078 60.0928 113.692 58.7942C115.534 58.1435 116.914 56.7209 117.627 54.8223C118.716 55.0653 119.963 53.9356 121.199 52.5189C121.183 55.6112 124.172 56.6389 123.108 60.4931C123.905 58.8787 124.719 57.6949 125.715 57.4384C126.698 58.6203 125.515 61.3291 126.986 62.1315C127.703 58.5791 129.913 54.6061 132.998 50.9566C129.934 49.86 133.314 44.6167 134.26 43.14C135.407 44.8185 134.654 47.5095 132.808 49.8141C136.086 49.1044 132.103 53.6535 134.546 53.6252C136.779 50.2264 134.197 38.1098 140.545 35.1174C136.918 43.1029 139.034 45.6044 138.316 50.8823C141.08 53.4292 143.198 52.4795 145.048 50.2467L143.442 49.6655C144.006 47.6293 144.858 47.3786 145.529 46.2008C145.777 46.9815 146.093 47.6875 146.695 46.5843C148.019 47.3209 145.453 47.8575 145.183 50.0255C147.44 47.2009 149.336 42.5936 151.742 39.9066C153.554 31.4923 160.711 20.1985 160.641 13.2274C159.03 16.0255 158.018 22.8972 154.495 22.8979C152.221 20.0434 157.66 17.6635 155.358 15.8885C153.292 19.8557 154.101 22.0514 151.262 22.9587C151.643 21.7208 150.495 21.7679 150.669 20.7541C152.534 17.1547 155.539 13.2928 157.091 14.3076C155.141 14.1 159.44 11.9825 157.398 11.2754C156.443 12.5368 155.062 12.1621 153.85 12.4274C152.603 17.08 150.777 19.887 148.339 20.0588C147.59 14.0502 150.44 9.90711 150.685 5.36755C152.372 4.4356 153.907 3.29421 155.215 1.87453C156.385 0.604291 156.045 -0.675909 155.486 -2.01906C155.009 -3.14981 153.188 -3.72219 154.194 -5.48899C155.532 -7.91648 156.348 -10.8258 158.134 -12.8403C162.405 -17.4011 165.21 -22.6208 167.197 -28.526C167.194 -28.5978 167.266 -28.6007 167.338 -28.6037C167.559 -28.4689 167.783 -28.2625 168.073 -28.2024C167.435 -22.7121 168.958 -18.8922 166.311 -13.3194C166.805 -13.5553 167.002 -13.9948 167.346 -14.3684C166.77 -10.8938 166.268 -7.3502 165.769 -3.7349C169.602 -1.44757 165.53 -7.82319 168.628 -7.66268C169.296 -5.38939 167.955 2.21483 165.376 2.46435C166.095 0.70933 166.811 -1.11744 167.246 -2.78891C165.903 -2.23054 165.136 0.101658 164.357 2.14671L164.285 2.14964C164.288 2.22142 164.222 2.36789 164.225 2.43967C163.701 3.68341 163.174 4.85538 162.333 5.39315C162.721 6.09618 162.201 10.9346 163.261 8.73424C163.258 8.66247 163.321 8.44419 163.39 8.36947C162.105 15.6118 159.938 22.3871 158.334 28.8517C155.939 37.0743 154.104 44.9145 154.434 52.9534C151.125 54.6708 149.962 57.882 149.811 61.1955C147.649 69.8399 142.752 76.6552 138.556 81.2849C141.898 83.8799 133.378 88.2556 133.399 92.2809C132.463 92.2474 131.915 92.917 131.785 91.4844C131.561 100.049 122.253 101.006 119.606 110.102C122.049 106.551 120.671 115.019 124.196 108.044C123.617 106.199 120.935 109.185 122.061 106.838C125.164 108.867 128.515 101.181 132.778 99.9275C132.438 93.3988 138.117 89.8586 141.853 82.8033C143.211 82.6038 147.374 82.4331 146.674 79.3703C145.325 83.308 145.027 77.7842 144.283 77.1676C145.852 73.3646 148.241 70.247 150.339 67.0693C150.858 69.205 151.578 70.9729 152.265 71.9513C152.589 71.0752 152.843 70.2739 153.167 69.3978C153.816 69.4431 154.169 69.2849 155.008 70.4727C157.571 66.3414 155.951 65.4012 156.144 63.0926C159.351 65.9089 162.186 52.6355 165.528 49.982C164.224 49.7479 164.105 48.6025 164.806 46.4168C165.482 47.1081 165.374 47.9753 166.555 46.9922C172.313 27.8471 176.622 10.1995 181.08 -7.31057C180.388 -13.681 182.044 -31.148 188.012 -29.3796C193.825 -50.6838 194.265 -73.2775 195.306 -96.9743C192.18 -104.827 193.215 -114.647 193.564 -121.923C193.464 -120.84 191.968 -124.014 192.603 -126.054C194.738 -133.618 197.693 -121.158 197.662 -114.901C197.367 -120.353 201.676 -115.21 203.156 -114.192C204.793 -102.324 204.687 -92.6139 206.194 -82.1787C205.95 -79.3647 204.382 -79.0128 204.299 -75.774C206.644 -71.1969 202.385 -66.3489 202.465 -60.888C202.451 -57.724 204.926 -55.2372 204.622 -52.1332C204.335 -48.5985 201.507 -45.6785 201.197 -42.718C200.984 -40.9118 201.762 -37.7084 201.681 -36.1952C201.675 -36.3387 200.566 -37.0841 200.626 -37.3742C200.253 -34.1954 201.765 -32.3881 201.59 -29.6489C201.539 -29.1435 199.672 -29.0669 199.609 -28.8487C197.89 -25.1833 200.115 -20.0261 199.496 -15.8307C197.165 -13.0749 197.462 -19.8454 196.284 -15.2676C198.251 -14.6293 196.995 -10.1921 198.005 -8.36413C194.077 -5.97424 195.835 3.58785 192.807 1.62703C192.526 5.30528 192.376 10.4161 191.428 15.344C190.477 20.2001 189.379 24.9903 188.289 28.1985C188.744 27.0295 189.548 27.356 190.349 27.6107C187.937 35.4026 187.179 37.9501 187.005 42.4868C186.422 42.295 186.602 41.4248 186.157 41.0836C184.385 46.9799 183.102 52.4967 181.212 57.2475C179.322 61.9983 177.479 66.172 175.677 69.5532C176.017 70.8334 176.707 71.8836 176.7 73.4656C174.193 75.4377 174.515 76.2873 175.118 78.707C173.242 80.2938 171.299 78.5042 171.147 81.8176C174.196 79.0324 171.341 86.5549 170.787 88.8064C169.69 88.3482 168.874 91.2575 167.667 89.869C166.288 89.5661 168.327 86.6785 167.298 86.1455C164.621 92.7261 166.304 93.4479 168.746 95.1452C170.676 93.1248 172.452 89.0976 174.371 86.7901C172.01 83.5797 178.5 73.5355 180.795 71.644C180.274 72.9595 181.423 72.9124 181.039 74.0785C180.315 73.9644 179.496 73.279 178.898 74.4539C179.916 81.7457 175.256 87.329 171.405 95.108C174.656 93.7524 172.234 97.8061 174.363 98.8691C177.843 90.8177 181.174 82.6287 184.4 75.3786C181.925 78.1403 183.962 71.7298 183.838 70.4407C185.496 68.791 189.524 63.5931 189.382 61.8734C188.783 63.0483 188.048 62.6471 187.243 62.3206C191.782 59.0429 192.576 52.1082 195.358 46.3142C192.896 52.8859 195.305 50.2708 194.363 55.3422C196.626 50.9355 198.255 48.568 197.154 44.515L198.9 45.0186C199.547 39.7436 201.949 33.462 204.48 26.8155C205.709 23.4579 207.081 20.0944 208.091 16.6738C208.954 13.1873 209.531 9.71262 209.751 6.32443C210.469 6.29499 211.426 6.83095 211.806 5.59309C211.967 -6.27648 219.571 -22.4776 217.882 -28.5915C220.319 -28.7633 220.265 -23.0812 218.352 -20.6302C222.662 -20.735 220.725 -27.6296 220.536 -30.4977C220.542 -30.3541 221.756 -30.5477 221.765 -30.3324C221.651 -34.8573 219.114 -37.1258 219.35 -41.8807C219.605 -47.9305 222.997 -49.3638 222.742 -57.3339C219.667 -55.1946 223.34 -65.5546 221.993 -68.591C221.304 -62.5953 220.876 -66.0288 221.181 -70.8584C221.343 -75.6821 221.586 -82.019 223.674 -81.9608C223.465 -78.2855 224.999 -77.7014 225.389 -75.201C225.208 -81.3767 226.046 -78.4633 228.514 -79.6429C227.877 -84.6496 229.579 -85.2227 229.797 -88.6827C227.877 -88.1725 228.062 -83.6507 226.694 -81.9409C226.704 -83.4512 226.451 -84.3754 226.125 -85.2967C226.881 -87.916 229.974 -89.6246 227.359 -92.0338C228.441 -91.9344 229.288 -92.3286 229.827 -93.2135C230.488 -84.1096 231.031 -77.8768 231.066 -71.767C230.667 -65.7113 229.76 -59.7786 227.733 -51.3554C228.16 -46.1963 227.08 -40.9755 226.144 -35.7605C225.21 -30.4737 224.564 -25.1987 225.006 -19.6808C223.854 -19.7055 223.861 -16.039 222.542 -16.632C221.399 -2.42144 212.538 11.171 213.828 23.3406C214.925 20.2759 215.314 15.7305 217.048 15.9469C216.4 19.4246 213.456 35.2908 210.39 30.6713C209.925 33.3505 209.741 35.8745 208.309 39.5281C210.275 41.8919 210.164 33.916 211.772 34.569C210.54 39.5804 208.203 50.964 203.925 53.584C201.098 63.5498 197.342 71.9001 194.128 79.4373C190.768 86.9086 187.298 93.4497 183.065 98.9436C185.66 100.85 180.899 100.47 180.123 102.587C179.523 105.488 183.299 102.888 182.374 104.868C181.841 105.896 182.214 106.24 181.891 107.116C180.333 111.206 178.632 110.054 177.072 112.347C177.944 114.324 174.828 118.981 172.831 122.874C168.319 121.549 167.012 130.014 164.656 133.922C160.171 142.014 153.251 150.35 147.193 158.651C140.91 166.746 135.417 174.808 130.832 180.46C139.277 172.493 139.818 168.157 147.615 161.941C150.38 155.717 154.801 149.568 159.506 143.336C163.99 136.969 168.316 130.249 171.712 123.639C172.97 124.522 174.2 122.961 175.498 123.052C175.635 124.628 174.305 127.271 174.373 128.922C177.689 125.622 180.056 113.231 186.827 108.28C185.333 106.903 188.02 104.061 189.221 101.783C186.928 96.7002 193.909 81.0999 197.125 75.36C198.087 76.0395 193.204 84.9393 195.604 82.1088C196.913 78.9636 198.216 75.6748 199.971 76.3937C199.548 78.3523 196.692 82.3517 197.867 82.9506C200.115 79.9107 201.971 72.573 204.834 75.7628C207.101 71.4279 202.055 76.3801 203.877 71.704C204.448 71.6086 204.927 71.0139 205.308 69.776C208.526 69.3564 207.297 72.714 208.014 74.4102C211.507 70.1688 209.303 69.0369 208.488 68.4233C211.393 65.6439 209.496 71.9768 211.917 69.6487C214.835 65.4309 216.496 60.33 217.257 57.8543C216.733 59.0981 216.027 59.4146 215.393 59.7282C216.396 57.8896 215.181 54.5603 217.179 54.1908C216.873 55.4974 216.085 57.3272 216.677 57.7343C220.251 51.9798 222.047 41.4092 225.951 38.445C226.046 35.4934 223.57 39.9807 223.937 36.6584C225.03 29.999 227.747 31.3974 229.371 27.1608C228.69 26.326 225.943 27.7327 226.779 25.3259C228.346 21.4511 228.333 14.1181 231.05 15.5165C231.247 16.8026 229.687 24.3439 231.01 21.5575C231.311 14.8587 233.581 10.5957 231.576 7.29873C233.263 2.84383 234.584 8.7571 235.849 4.53523C235.853 2.88142 233.594 3.9087 233.939 1.80953C235.325 0.530465 240.378 -11.2521 236.783 -6.00005C238.311 -10.8079 238.416 -11.7469 239.859 -18.6363C238.983 -18.9599 237.562 -18.5421 237.641 -20.127C240.342 -29.6563 240.901 -38.8102 241.762 -47.6169C242.408 -56.4148 243.209 -64.9316 244.438 -73.5377C243.412 -73.9989 242.852 -71.8909 242.638 -73.6076C243.665 -80.1205 244.595 -85.479 242.188 -89.8379C243.049 -89.8732 243.503 -89.3167 244.032 -88.6913C242.973 -93.4649 244.305 -99.5589 245.277 -103.913C247.707 -100.777 245.654 -94.7252 249.589 -93.4487C249.253 -101.631 244.225 -105.02 245.206 -114.407C243.778 -115.93 242.961 -111.295 242.769 -114.235C243.486 -117.787 243.301 -118.786 241.909 -121.174C243.991 -121.259 243.849 -124.704 244.467 -127.174C241.366 -136.178 244.647 -145.587 240.076 -153.596C239.957 -158.264 239.816 -163.435 239.165 -168.801C238.298 -174.157 237.282 -179.652 236.056 -184.994C233.674 -195.752 230.816 -205.845 228.087 -212.779C229.395 -214.198 226.961 -219.203 229.476 -219.234C225.427 -225.036 227.969 -229.67 223.931 -233.458C224.277 -232.035 224.546 -230.751 223.463 -230.851C222.137 -233.385 222.197 -233.675 220.493 -238.422C221.339 -238.816 222.557 -238.938 221.526 -241.268C216.686 -243.586 217.566 -253.688 216.403 -259.248C215.186 -259.126 215.765 -257.281 215.444 -256.333C213.832 -260.581 210 -268.116 212.57 -270.307C214.327 -267.791 211.688 -265.526 214.239 -264.695C213.743 -266.257 214.958 -266.45 215.057 -267.533C207.004 -278.059 201.15 -294.571 198.243 -302.361C197.051 -305.116 194.521 -305.443 193.894 -306.712C192.323 -309.955 193.387 -313.809 189.44 -318.895C190.124 -317.989 188.733 -320.376 187.188 -322.973C186.641 -324.029 179.689 -334.025 180.319 -337.934C181.418 -339.201 185.518 -330.382 184.731 -333.801C182.499 -337.376 181.169 -338.256 180.152 -342.025C179.053 -340.758 177.717 -341.781 176.788 -343.397C175.718 -344.935 174.838 -347.127 174.859 -348.35C177.768 -345.809 180.468 -341.319 182.926 -340.988C178.725 -346.999 168.555 -356.576 173.709 -358.872C173.218 -358.564 171.93 -360.165 172.406 -360.832C176.346 -357.686 176.324 -359.986 179.884 -357.328C173.427 -362.24 170.297 -368.438 166.891 -374.338C163.417 -380.163 160.158 -385.997 152.708 -388.855C153.459 -389.82 154.586 -388.644 155.343 -389.466C153.066 -392.392 151.761 -390.901 149.144 -395.107C150.2 -395.654 149.355 -396.985 150.264 -397.598C148.16 -399.812 145.895 -402.451 144.065 -403.239C147.604 -399.358 148.068 -396.789 146.997 -394.875C142.697 -401.529 138.191 -402.711 135.87 -410.236C138.478 -406.245 139.526 -408.733 142.065 -404.667C142.423 -406.479 144.753 -407.509 141.744 -410.765C140.972 -410.302 140.307 -408.981 139.183 -410.085C141.654 -411.193 132.571 -424.049 127.78 -428.67C125.292 -427.993 128.636 -425.326 126.806 -424.388C126.313 -425.878 124.361 -427.883 122.266 -429.882C125.029 -429.132 124.363 -429.608 125.719 -431.605C123.433 -434.747 123.141 -431.355 121.103 -433.716C122.838 -435.225 117.577 -439.036 118.215 -441.003C113.091 -443.238 113.212 -445.543 114.771 -446.11C110.376 -448.087 109.516 -449.777 105.886 -450.635C105.289 -452.911 106.511 -451.164 107.537 -452.428C103.454 -455.568 104.037 -455.376 101.958 -458.742C100.2 -459.533 98.693 -459.471 96.7974 -460.112C95.9825 -462.452 93.3485 -463.566 97.0679 -462.28C87.7644 -471.749 79.9633 -469.128 76.016 -474.215C72.6915 -471.131 69.5456 -475.962 67.0092 -479.956C64.9277 -479.871 68.0263 -476.188 65.5782 -478.029C63.7978 -481.119 61.7147 -482.831 57.5981 -485.035C57.8686 -487.203 60.239 -485.503 61.2892 -486.193C58.5293 -486.87 56.1029 -489.934 55.104 -489.75C56.3054 -488.505 56.9296 -487.308 56.9737 -486.231C54.678 -487.863 53.5473 -487.385 50.7885 -489.788L51.8063 -491.268C41.694 -494.16 31.7811 -504.467 26.6732 -504.545C23.229 -506.129 25.4127 -507.225 23.6971 -508.736C23.2212 -508.07 23.4689 -507.289 23.7884 -506.511C20.8132 -507.18 10.8195 -517.699 15.6811 -511.356C10.9608 -514.254 10.6248 -517.188 6.94363 -517.54C9.30523 -516.055 8.56571 -514.802 6.07527 -515.923C7.94439 -515.927 7.74791 -517.213 4.88387 -518.678C3.3883 -518.329 1.05038 -519.239 -1.13234 -519.869C2.3935 -519.798 -5.37663 -523.433 -7.11396 -523.722C-6.37269 -523.177 -5.05425 -522.584 -5.32076 -522.07C-7.51525 -522.986 -13.6298 -524.82 -14.657 -527.079C-13.6669 -527.479 -10.6182 -525.016 -9.93866 -525.978C-13.0022 -528.801 -14.9706 -527.713 -18.7736 -529.283C-18.8037 -533.524 -30.5851 -531.531 -29.8433 -536.234C-25.9814 -533.229 -21.8037 -533.041 -18.2572 -532.468C-14.7795 -531.819 -11.8016 -531.079 -10.3654 -527.615C-8.69167 -530.631 -6.09214 -526.855 -0.925436 -525.341C-1.23785 -527.701 1.35656 -525.795 2.26613 -526.407C-2.38823 -529.452 -1.01086 -527.423 -2.45519 -527.579C-3.14829 -528.701 -6.21295 -529.798 -4.82154 -530.933C-3.57488 -530.337 -1.87689 -529.257 -1.39505 -529.78C-6.00237 -531.676 -7.87611 -533.54 -8.02148 -535.332C-11.1461 -536.138 -13.4301 -537.483 -16.5212 -539.225C-19.75 -540.818 -23.7113 -542.741 -29.987 -545C-32.4274 -544.9 -29.1692 -542.589 -33.0981 -543.722C-46.4635 -552.305 -61.3084 -553.134 -72.4244 -557.711C-75.329 -556.657 -71.3981 -553.727 -76.9267 -555.297C-79.4407 -556.992 -78.3307 -557.972 -77.014 -559.176C-88.1264 -560.158 -93.8197 -565.749 -105.365 -568.51C-111.247 -564.674 -126.182 -572.977 -134.127 -570.351C-128.58 -570.075 -121.618 -568.635 -119.353 -565.996C-124.121 -564.793 -137.721 -566.824 -135.359 -570.588C-142.011 -569.74 -146.771 -575.368 -149.441 -572.095C-150.123 -576.453 -163.555 -577.915 -171.37 -577.379C-170.222 -577.426 -173.059 -578.244 -176.017 -578.483C-183.807 -579.098 -192.545 -580.034 -201.125 -580.616C-207.814 -580.702 -214.487 -580.356 -220.564 -579.532C-220.591 -580.178 -220.548 -580.898 -220.297 -581.771C-227.597 -580.969 -234.826 -580.169 -241.983 -579.372C-241.845 -579.522 -241.779 -579.668 -241.938 -580.021C-245.485 -578.869 -246.789 -579.103 -250.142 -578.463C-252.573 -578.147 -254.936 -577.906 -257.368 -577.591C-260.432 -578.688 -265.926 -579.397 -269.024 -579.557C-266.733 -579.795 -267.731 -581.336 -264.489 -581.181C-259.286 -580.532 -252.912 -581.153 -249.274 -583.603C-246.816 -583.272 -246.721 -582.701 -247.978 -581.787C-234.258 -583.859 -223.915 -582.342 -211.388 -585.444C-214.461 -583.233 -199.744 -583.765 -203.068 -585.929C-195.03 -584.533 -184.764 -583.157 -174.606 -582.639C-169.489 -582.345 -164.45 -582.192 -159.71 -582.315C-157.338 -582.34 -155.041 -582.434 -152.891 -582.594C-150.735 -582.611 -148.725 -582.693 -146.79 -582.845C-152.708 -583.393 -163.185 -586.414 -168.357 -584.548C-165.362 -586.9 -173.575 -585.557 -174.398 -584.588L-174.256 -586.392C-199.968 -589.22 -227.117 -588.538 -253.327 -587.75ZM-578.179 -402.451C-579.27 -404.491 -576.164 -405.912 -574.546 -406.77C-573.637 -405.656 -577.402 -402.77 -578.179 -402.451ZM181.331 70.6873C178.164 70.6015 182.552 65.3888 181.745 64.9905C184.008 62.3095 182.876 68.0357 181.331 70.6873ZM200.36 35.037C197.14 33.6592 201.227 31.6223 202.061 27.418C203.244 28.2323 200.696 32.7225 200.36 35.037ZM190.814 26.657C189.214 26.2193 190.886 21.4056 192.134 20.2759C193.377 20.8001 191.024 24.7791 190.814 26.657ZM218.596 -49.7584C218.195 -50.7486 218.203 -52.3306 218.413 -54.2086C219.283 -54.0286 220.15 -53.9203 220.388 -55.1523C221.646 -54.2692 220.236 -48.3159 218.596 -49.7584ZM223.9 -85.2055C222.207 -84.4171 222.658 -87.4552 221.509 -87.4081C219.715 -78.5632 221.381 -69.5005 216.543 -66.4981C218.387 -74.1229 216.538 -77.1387 215.364 -82.9861C215.951 -84.4481 217.001 -85.1382 217.197 -87.3751C218.631 -85.7084 218.098 -84.68 217.782 -81.863C220.118 -82.7497 221.361 -85.7485 221.517 -90.7157C223.782 -91.5995 224.175 -89.0273 223.9 -85.2055ZM-132.653 -546.685C-132.566 -548.055 -128.676 -546.129 -127.022 -546.125C-127.582 -545.743 -128.213 -545.357 -129.068 -545.178C-130.091 -545.568 -131.042 -545.96 -132.061 -546.278C-132.067 -546.421 -132.217 -546.559 -132.653 -546.685ZM-53.6579 -540.147C-49.4665 -537.874 -49.9955 -538.499 -45.0265 -536.546C-43.5891 -534.808 -45.4504 -532.862 -49.3517 -535.075C-44.7598 -537.06 -54.2373 -536.744 -53.6579 -540.147ZM183.937 -254.969C185.456 -254.744 186.679 -249.473 187.641 -247.068C184.301 -247.866 185.478 -250.718 183.937 -254.969ZM211.68 -199.092C212.508 -192.943 211.764 -190.037 211.831 -183.137C208.472 -186.163 209.64 -192.754 207.293 -199.128C208.804 -199.118 209.93 -197.942 211.68 -199.092ZM213.495 -165.375C215.611 -164.599 213.719 -161.646 213.462 -160.916C212.119 -160.358 212.474 -163.967 211.257 -163.846C210.739 -167.707 214.081 -161.589 213.495 -165.375ZM212.161 -178.621C213.688 -178.181 214.452 -175.336 215.98 -174.896C214.471 -173.108 217.732 -165.477 215.468 -164.593C216.336 -169.734 211.965 -172.862 212.161 -178.621ZM203.811 -170.083C204.817 -166.601 206.095 -163.49 207.123 -157.709C204.139 -155.07 202.785 -160.047 200.947 -166.299C199.252 -172.556 197.929 -180.267 196.944 -183.246C197.612 -188.019 199.855 -189.405 201.906 -183.234C201.398 -183.357 201.075 -184.206 200.507 -184.039C201.863 -177.265 202.805 -173.565 203.811 -170.083ZM214.221 -159.941C216.629 -152.059 217.463 -133.472 214.122 -137.793C216.115 -143.554 212.731 -150.677 214.221 -159.941ZM198.859 -189.148C197.378 -188.44 196.842 -191.007 196.188 -192.921C197.755 -193.273 199.563 -191.262 198.859 -189.148ZM180.08 -196.502C181.46 -189.154 182.484 -181.718 183.509 -176.009C184.617 -173.538 185.968 -177.404 185.303 -179.605C187.198 -178.964 185.985 -175.247 186.561 -173.474C185.496 -173.142 185.081 -174.491 183.95 -174.014C182.685 -173.315 184.733 -168.941 184.75 -166.785C180.463 -173.152 178.747 -179.911 177.49 -187.769C176.898 -191.699 176.294 -195.916 175.609 -200.345C174.708 -204.766 173.366 -209.456 171.718 -214.565C172.574 -214.744 173.429 -214.923 173.164 -216.134C174.636 -213.534 175.983 -210.498 177.198 -207.169C177.84 -205.541 178.416 -203.768 178.92 -201.991C179.284 -200.136 179.716 -198.357 180.08 -196.502ZM117.741 50.5757C117.651 50.148 117.702 49.6427 117.9 49.2032C118.047 49.2691 118.187 49.1914 118.337 49.329C118.105 50.7046 117.988 51.3565 117.788 51.7242C117.77 51.2935 117.827 50.9317 117.741 50.5757ZM95.6285 109.216C95.9274 109.491 96.2293 109.838 96.5281 110.114C96.3963 110.407 96.2646 110.7 96.1328 110.993C95.9116 110.858 95.6904 110.723 95.4692 110.588C95.248 110.454 95.0268 110.319 94.8055 110.184C95.0809 109.885 95.3561 109.586 95.6285 109.216ZM-582.512 -47.03C-581.691 -46.2728 -581.21 -45.0703 -580.99 -43.21C-580.978 -42.9229 -580.966 -42.6358 -580.954 -42.3487C-581.209 -41.5473 -580.941 -40.2642 -580.744 -38.9781C-582.214 -41.5061 -582.613 -44.2219 -582.512 -47.03ZM-362.581 -557.243C-359.958 -558.142 -358.783 -557.543 -357.677 -556.869C-360.872 -555.875 -364.236 -555.522 -367.425 -554.384C-368.074 -554.43 -368.651 -554.478 -369.088 -554.604C-362.423 -556.89 -362.888 -554.211 -362.581 -557.243ZM-356.973 -558.983C-354.906 -559.427 -353.413 -559.848 -352.061 -560.191C-352.127 -560.044 -352.196 -559.97 -352.187 -559.754C-352.744 -559.3 -353.303 -558.918 -353.866 -558.607C-355.708 -557.956 -357.342 -557.458 -356.973 -558.983ZM-204.861 -561.267C-206.446 -561.345 -207.367 -561.02 -207.921 -560.494C-210.585 -560.601 -213.112 -560.856 -215.002 -561.354C-214.302 -561.814 -213.527 -562.205 -212.752 -562.597C-213.834 -562.696 -215.396 -562.201 -216.826 -561.998C-216.972 -562.064 -217.19 -562.127 -217.337 -562.193C-217.621 -562.109 -217.977 -562.023 -218.333 -561.936C-218.838 -561.988 -219.278 -562.185 -219.582 -562.604C-217.435 -562.836 -217.569 -564.34 -213.879 -563.773C-209.332 -559.861 -211.885 -562.488 -204.861 -561.267ZM-581.291 -168.011C-581.118 -167.299 -581.318 -166.931 -581.597 -166.704C-581.758 -167.129 -581.85 -167.628 -582.014 -168.125C-581.655 -168.14 -581.294 -168.083 -581.291 -168.011ZM-477.298 -465.328C-477.365 -463.456 -477.803 -461.856 -480.094 -461.618C-480.166 -461.615 -480.165 -461.615 -480.237 -461.612C-479.354 -462.871 -478.399 -464.132 -477.298 -465.328ZM-239.912 -558.679C-241.701 -558.462 -243.561 -558.242 -245.421 -558.022C-245.568 -558.087 -245.714 -558.153 -245.858 -558.148C-247.239 -558.522 -248.438 -559.695 -249.633 -560.797C-247.767 -560.873 -245.829 -560.953 -243.966 -561.101C-239.809 -561.415 -235.801 -561.867 -232.023 -562.669C-231.913 -561.739 -232.082 -560.582 -229.719 -560.822C-229.542 -561.764 -230.172 -563.105 -228.667 -563.238C-225.276 -562.946 -222.519 -562.34 -220.322 -561.352C-225.799 -559.905 -232.674 -559.263 -239.912 -558.679ZM-256.081 -560.245C-255.794 -560.256 -255.435 -560.271 -255.151 -560.355C-255.504 -560.196 -255.791 -560.185 -256.081 -560.245ZM-450.09 -492.614C-451.469 -491.191 -453.491 -491.396 -454.925 -493.063C-455.003 -493.203 -455.081 -493.344 -455.089 -493.559C-452.731 -495.669 -450.009 -497.65 -446.924 -499.574C-446.316 -497.011 -447.19 -495.537 -450.09 -492.614ZM-458.333 -490.263C-458.822 -488.158 -460.13 -486.738 -462.182 -485.935C-461.021 -487.42 -459.785 -488.837 -458.333 -490.263ZM-206.913 -560.464C-205.558 -560.735 -204.048 -560.725 -202.528 -560.5C-203.964 -560.441 -205.471 -560.379 -206.913 -560.464ZM-313.052 -569.699C-313.925 -569.951 -314.876 -570.344 -315.758 -570.811C-313.823 -570.962 -312.16 -570.743 -311.482 -569.98C-311.981 -569.887 -312.552 -569.792 -313.052 -569.699ZM-324.262 -567.802C-324.621 -567.787 -325.123 -567.766 -325.413 -567.826C-324.928 -568.278 -324.154 -568.669 -323.164 -569.069C-323.436 -568.698 -323.777 -568.253 -324.262 -567.802ZM-336.457 -563.635C-333.094 -562.263 -329.234 -564.578 -329.709 -565.637C-328.196 -565.555 -327.676 -565.145 -327.584 -564.646C-328.209 -564.117 -328.834 -563.588 -329.463 -563.131C-329.887 -562.97 -330.315 -562.88 -330.743 -562.791C-331.437 -562.187 -332.057 -561.515 -332.604 -560.845C-333.236 -560.46 -333.795 -560.077 -334.148 -559.919C-335.348 -559.367 -337.057 -560.734 -336.904 -562.25C-336.847 -562.612 -336.793 -563.046 -336.664 -563.411C-336.598 -563.557 -336.526 -563.56 -336.457 -563.635ZM-368.909 -553.748C-368.978 -553.674 -369.121 -553.668 -369.262 -553.59C-369.755 -553.354 -370.114 -553.339 -370.548 -553.393C-369.979 -553.561 -369.408 -553.656 -368.909 -553.748ZM-581.291 -54.0541C-581.333 -53.3334 -581.453 -52.7533 -581.717 -52.1673C-581.597 -52.7474 -581.479 -53.3993 -581.291 -54.0541ZM186.192 -231.551C188.741 -232.518 186.899 -228.345 188.667 -225.541C186.832 -226.473 186.594 -228.764 186.192 -231.551ZM63.7884 -462.066C65.751 -463.297 67.2914 -459.046 71.2704 -456.693C70.5103 -455.943 71.5652 -454.764 70.6586 -454.079C68.1004 -456.85 65.327 -459.613 63.7884 -462.066ZM56.3096 -467.367C56.9319 -467.968 57.4795 -468.637 56.5082 -469.532C57.6006 -470.943 62.4517 -466.612 63.0936 -464.985C61.6187 -464.134 59.2806 -465.044 56.3096 -467.367ZM-138.259 -548.396C-138.125 -548.618 -138.062 -548.836 -137.927 -549.057C-136.247 -548.407 -136.092 -548.126 -136.292 -547.758C-137.019 -547.944 -137.605 -548.207 -138.259 -548.396ZM-184.451 -559.731C-185.381 -559.621 -186.239 -559.514 -187.023 -559.338C-187.397 -559.682 -187.698 -560.029 -187.857 -560.382C-186.777 -560.355 -185.617 -560.115 -184.451 -559.731ZM-191.863 -561.656C-193.29 -561.382 -195.147 -561.09 -197.151 -560.864C-198.817 -561.155 -200.342 -561.524 -202.533 -562.369C-197.425 -562.291 -195.754 -561.856 -192.03 -562.224C-191.953 -562.084 -191.872 -561.871 -191.863 -561.656ZM-292.083 -572.069C-294.906 -572.529 -297.714 -572.629 -301.139 -571.985C-299.913 -575.415 -291.816 -574.309 -288.874 -572.704C-289.945 -572.516 -291.013 -572.257 -292.083 -572.069ZM-309.2 -570.432C-307.952 -571.562 -305.466 -572.311 -302.544 -572.934C-301.092 -570.837 -307.307 -569.863 -309.2 -570.432ZM-365.765 -559.485L-365.022 -557.143C-366.924 -556.202 -370.21 -557.434 -370.63 -555.403C-374.56 -554.811 -369.759 -556.949 -370.07 -557.511C-371.589 -557.736 -372.418 -556.912 -373.525 -555.86C-373.901 -556.276 -374.275 -556.62 -374.649 -556.964C-372.342 -558.568 -369.443 -559.766 -365.765 -559.485ZM-385.097 -554.019C-385.136 -553.227 -387.2 -552.711 -388.833 -552.212C-388.836 -552.284 -388.839 -552.356 -388.842 -552.428C-388.937 -552.999 -389.388 -553.484 -389.906 -553.822C-386.738 -555.462 -386.954 -553.727 -385.097 -554.019ZM-396.034 -543.721C-396.186 -543.93 -396.138 -544.507 -395.935 -544.803C-394.656 -546.941 -392.99 -548.375 -390.426 -548.983C-389.215 -549.249 -388.825 -550.271 -388.801 -551.423C-387.876 -551.676 -386.877 -551.861 -385.586 -551.914C-385.418 -551.346 -384.419 -551.53 -384.043 -551.114C-389.221 -549.392 -387.309 -546.595 -384.941 -550.215C-384.229 -550.388 -383.517 -550.561 -382.805 -550.734C-382.797 -548.793 -382.718 -546.855 -382.854 -544.908C-382.902 -544.331 -384.302 -543.411 -384.954 -543.528C-386.694 -543.888 -388.482 -545.396 -389.908 -545.122C-391.547 -544.767 -392.682 -542.636 -394.853 -542.978C-395.284 -542.961 -395.729 -543.302 -396.034 -543.721ZM-433.162 -521.636C-433.491 -520.903 -433.749 -520.173 -433.361 -519.47C-434.42 -518.996 -435.26 -518.458 -436.032 -517.995C-436.744 -517.822 -437.531 -517.718 -438.248 -517.688C-436.717 -518.901 -434.834 -520.345 -433.162 -521.636ZM-537.049 -439.151C-536.565 -439.602 -536.011 -440.128 -535.526 -440.58C-535.38 -440.514 -535.162 -440.451 -535.012 -440.313C-535.411 -437.78 -538.663 -436.425 -541.76 -434.788C-540.165 -436.219 -538.57 -437.651 -537.049 -439.151ZM-548.621 -396.976C-548.486 -397.198 -548.205 -397.353 -547.924 -397.508C-548.118 -396.997 -548.313 -396.486 -548.436 -395.977C-548.732 -396.181 -548.89 -396.534 -548.621 -396.976ZM-579.254 -30.6992C-578.752 -30.7198 -578.25 -30.7404 -577.822 -30.8299C-577.869 -31.9783 -578.544 -32.6696 -579.423 -33.0649C-579.503 -35.0029 -579.51 -36.9437 -579.521 -38.9564C-577.913 -38.3034 -576.849 -36.9091 -575.86 -35.5836C-574.258 -33.3486 -575.052 -31.6624 -577.532 -30.7698C-577.212 -29.9921 -576.962 -29.1396 -576.57 -28.3647C-574.476 -24.6401 -574.492 -23.2734 -576.994 -21.1577C-577.063 -21.083 -577.203 -21.0053 -577.272 -20.9306C-578.481 -24.1164 -578.973 -27.3316 -579.254 -30.6992ZM-573.653 -2.81716C-574.435 -6.09237 -574.851 -9.23879 -574.969 -12.1098C-574.294 -11.4186 -573.825 -10.5031 -573.835 -8.99286C-573.796 -8.05978 -573.743 -6.76783 -573.152 -6.36074C-568.928 -3.29857 -572.09 2.0077 -569.358 5.49055C-567.461 7.92913 -568.335 9.40292 -569.649 10.679C-571.416 6.15013 -572.684 1.5288 -573.653 -2.81716ZM13.7173 212.152C13.6632 212.586 12.3142 213.001 11.5936 212.958C11.2317 212.901 10.8641 212.701 10.4964 212.5C10.1286 212.299 9.82964 212.024 9.46192 211.824C10.165 211.435 10.7875 210.835 11.4994 210.662C12.6389 210.399 14.0085 210.487 13.7173 212.152ZM49.2821 197.537C49.934 197.654 50.4 198.497 50.9949 198.976C50.6477 199.278 50.384 199.864 50.0252 199.879C48.7391 200.075 47.4473 200.128 46.1583 200.253C46.1612 200.325 46.1642 200.397 46.1671 200.468C46.0953 200.471 45.9517 200.477 45.8799 200.48C45.6193 201.138 45.3587 201.796 45.0234 202.385C44.9575 202.531 44.0872 202.351 44.0843 202.279C43.8043 200.709 44.8062 200.596 45.8799 200.48C45.877 200.408 45.9459 200.334 45.9429 200.262C46.0147 200.259 46.0865 200.256 46.1583 200.253C46.0729 198.172 47.1053 197.051 49.2821 197.537ZM56.8214 188.528C56.4201 189.263 56.019 189.999 55.6207 190.806C55.1576 190.034 54.4075 189.274 54.4469 188.482C54.4146 187.692 55.1746 186.942 55.6447 186.132C55.9642 186.909 56.4301 187.753 56.8214 188.528ZM62.7558 182.461C63.8354 182.489 64.9148 182.516 64.6954 184.179C64.6984 184.251 63.8459 184.501 63.7682 184.361C63.3858 183.801 63.0724 183.167 62.7558 182.461C62.684 182.464 62.5404 182.47 62.4686 182.473C62.4657 182.401 62.4627 182.329 62.4598 182.257C60.7401 182.4 59.0262 182.686 57.6036 181.306C56.7788 180.477 56.664 177.678 57.4565 177.717C58.1771 177.76 59.0473 177.94 59.5675 178.35C60.9036 179.373 62.5209 180.242 62.4627 182.329C62.5345 182.326 62.6063 182.323 62.6781 182.32C62.6781 182.32 62.7529 182.389 62.7558 182.461ZM64.9464 171.011C69.6225 172.833 73.3131 176.923 78.7858 177.13C79.0729 177.118 79.5742 178.823 79.3884 179.55C79.2025 180.277 78.1699 181.397 77.6645 181.346C72.2254 180.203 67.1039 178.041 62.5154 174.85C62.1448 174.577 62.4419 173.055 62.6218 172.185C62.6218 172.185 62.6218 172.185 62.6189 172.113C62.8254 171.889 63.0319 171.665 63.2354 171.369C63.376 171.291 63.4449 171.217 63.5108 171.07C64.0879 171.118 64.5787 170.811 64.9464 171.011ZM98.8561 126.554C99.9533 127.013 100.413 127.713 100.099 128.804C99.1538 128.555 98.3406 128.014 98.0664 126.587C97.6075 124.161 99.0708 123.023 101.236 123.221C101.523 123.21 101.663 123.132 101.879 123.123C101.122 123.945 100.155 124.919 98.8561 126.554ZM102.57 108.428C102.642 108.425 102.789 108.491 102.86 108.488L102.654 108.712C102.651 108.64 102.648 108.568 102.57 108.428C102.352 108.365 102.134 108.302 101.915 108.239C102.05 108.018 102.113 107.8 102.251 107.65C102.406 107.931 102.49 108.215 102.57 108.428ZM174.246 8.35569C170.52 17.4237 166.784 26.2764 165.279 36.907C163.841 40.417 161.755 43.8817 159.608 47.6365C159.336 48.0072 159.066 48.4496 158.868 48.8891C159.159 47.2235 159.451 45.558 159.745 43.9641C160.444 39.9811 161.15 36.1417 162.142 32.2904C162.988 28.3733 164.115 24.3009 165.876 19.9148C162.349 12.7979 174.776 2.00697 173.56 -4.8453C169.294 -1.93824 172.406 -13.7132 172.922 -20.4207C174.904 -19.4235 177.384 -20.3161 180.883 -20.891C180.242 -10.2239 177.245 -0.898252 174.246 8.35569ZM191.276 -126.862C189.824 -128.959 192.57 -130.366 191.765 -134.216C191.194 -134.12 191.46 -132.909 191.351 -132.042C190.481 -132.222 190.866 -135.113 189.864 -135C188.622 -133.727 190.275 -128.475 190.175 -125.666C186.986 -129.778 186.769 -140.338 184.69 -143.703C185.839 -145.476 187.879 -144.841 188.336 -144.212C190.298 -145.443 188.17 -146.506 189.095 -148.485C187.976 -151.243 188.229 -145.071 186.321 -145.999C185.423 -153.871 185.993 -155.764 183.698 -159.121C184.062 -162.515 184.775 -159.165 183.158 -165.281C187.205 -166.526 185.433 -158.904 187.04 -156.525C189.468 -160.436 182.416 -169.349 186.552 -170.166C187.044 -166.951 187.9 -163.607 188.762 -160.119C189.408 -156.623 190.133 -152.986 190.788 -149.274C192.025 -141.919 192.845 -134.188 191.276 -126.862ZM216.013 -130.249C217.921 -129.321 216.844 -132.799 216.836 -134.74C217.988 -131.193 218.516 -125.319 219 -118.796C219.055 -112.184 218.994 -104.92 219.689 -98.4775C214.849 -106.044 218.644 -118.71 216.013 -130.249ZM221.475 -95.2435C222.224 -101.529 221.732 -103.019 222.032 -109.718C219.202 -103.347 219.957 -123.509 221.325 -125.218C223.262 -120.049 223.156 -113.862 223.036 -108.033C222.987 -102.208 222.921 -96.8126 224.512 -93.0673C222.613 -92.0548 222.644 -94.7882 221.475 -95.2435ZM227.003 -91.9473C224.883 -92.795 226.339 -95.8743 226.989 -97.5546C228.436 -97.3264 227.335 -92.6079 227.003 -91.9473ZM227.271 -167.81L225.345 -167.443C225.509 -166.946 225.601 -166.447 225.765 -165.95C226.296 -163.528 226.686 -161.027 227.154 -158.386C228.015 -153.173 228.816 -147.67 229.404 -142.086C230.512 -130.844 231.575 -118.952 229.95 -107.742C230.143 -106.527 231.202 -107.002 231.19 -105.564C231.011 -102.896 230.448 -100.86 229.959 -98.7549C228.081 -98.9655 228.94 -104.321 228.727 -107.763C227.863 -107.8 226.998 -107.836 226.908 -106.538C226.173 -117.437 225.436 -137.178 220.398 -153.076C220.678 -156.755 221.037 -160.292 222.387 -162.433C221.536 -165.633 220.559 -161.423 219.387 -161.95C218.698 -164.726 220.96 -167.407 218.966 -168.691C218.903 -171.996 219.628 -170.084 221.133 -170.218C219.183 -175.674 217.658 -179.566 217.364 -183.221C215.179 -183.922 217.152 -179.617 217.241 -177.464C214.455 -180.513 213.704 -188.319 214.355 -191.725C216.456 -193.105 219.347 -187.472 218.295 -193.828C221.424 -189.426 219.824 -175.844 222.918 -174.03C222.774 -182.795 217.58 -197.249 220.239 -202.535C225.45 -191.173 224.022 -180.402 227.271 -167.81ZM210.596 -218.532C209.525 -218.344 209.73 -216.843 208.582 -216.796C206.689 -220.888 209.362 -220.566 207.468 -224.659C208.724 -223.848 209.517 -220.285 210.596 -218.532ZM198.332 -247.579C200.958 -234.386 204.872 -223.114 208.156 -209.661C209.215 -210.135 207.428 -213.369 208.039 -214.257C209.893 -214.621 211.1 -207.984 209.246 -207.62C211.083 -204.892 211.663 -204.772 213.821 -206.514C212.735 -201.436 211.197 -200.367 209.762 -202.033C208.253 -203.769 206.988 -208.319 205.365 -214.579C204.767 -213.404 205.516 -210.918 205.813 -208.917C204.129 -207.914 203.894 -213.656 202.452 -213.74C202.175 -215.239 203.691 -215.085 204.466 -215.477C200.743 -225.605 200.211 -226.302 196.451 -237.364C198.16 -239.519 194.794 -242.688 196.399 -245.63C194.995 -248.305 196.119 -241.952 194.135 -244.746C192.241 -252.362 193.972 -252.217 189.856 -259.669C188.223 -259.171 193.282 -253.267 190.31 -253.864C189.239 -258.925 187.226 -262.437 184.641 -265.854C185.826 -266.766 186.84 -266.592 187.868 -266.059C186.892 -268.823 185.66 -269.06 184.332 -268.142C181.542 -273.061 182.691 -274.833 183.094 -277.294C189.423 -273.743 193.342 -253.557 198.332 -247.579ZM167.399 -346.175C164.247 -345.902 163.775 -350.412 160.801 -352.807C162.629 -353.816 165.233 -348.171 167.399 -346.175ZM159.351 -377.624C163.878 -375.94 158.561 -375.866 161.05 -373.02C160.195 -372.841 158.949 -375.163 157.885 -376.557C158.657 -377.02 159.36 -377.408 158.664 -378.602C159.376 -378.775 159.633 -377.779 159.351 -377.624ZM150.314 -373.586L147.715 -377.362L149.178 -378.5C150.194 -376.529 151.795 -374.294 150.314 -373.586ZM146.54 -377.961C145.28 -377.118 143.213 -380.197 141.247 -382.561L142.638 -383.696C144.524 -381.545 146.263 -379.459 146.54 -377.961ZM143.665 -376.189C148.075 -370.331 152.204 -364.317 154.986 -361.34C152.46 -361.595 148.372 -366.604 143.884 -372.603C139.327 -378.528 133.879 -385.135 129.962 -389.503C133.866 -387.219 138.905 -381.818 143.665 -376.189ZM132.798 -418.522C131.519 -416.385 131.606 -416.029 128.927 -416.494C128.692 -418.714 129.552 -422.272 132.798 -418.522ZM127.632 -421.762C127.674 -420.757 128.955 -419.3 127.83 -418.678C127.427 -419.74 127.025 -420.802 126.319 -420.485C125.557 -421.533 126.622 -421.864 125.567 -423.043C126.362 -422.932 127.157 -422.821 127.708 -423.418C128.542 -422.374 128.905 -420.52 127.632 -421.762ZM118.629 -437.929C117.78 -437.606 116.184 -439.698 114.842 -440.865C114.51 -440.204 115.998 -438.971 116.978 -437.861C116.971 -436.279 113.052 -438.922 115.252 -436.137C113.807 -436.293 113.257 -440.944 113.12 -442.52C116.256 -439.701 116.392 -441.647 118.629 -437.929ZM82.1057 -457.209L83.2699 -458.623L87.7384 -454.852C86.8701 -453.234 84.0102 -456.353 82.1057 -457.209ZM89.2338 -463.972C86.405 -464.575 88.6349 -462.797 91.1636 -460.744C88.4714 -459.771 85.8554 -465.703 83.3149 -468.043C84.3533 -469.02 87.3923 -465.047 89.2338 -463.972ZM73.3705 -466.845C78.5708 -466.267 83.364 -465.097 88.4221 -457.468C85.0162 -458.119 80.0564 -465.106 75.8528 -462.417C68.9521 -469.396 62.2379 -473.578 59.4203 -477.416C64.1605 -477.539 71.3907 -471.293 73.3705 -466.845ZM48.6901 -486.611C53.3768 -482.777 54.5448 -480.596 59.2061 -479.133L57.4371 -476.688C52.8644 -481.246 45.0343 -484.591 39.6398 -489.906C43.085 -490.048 45.5013 -485.473 48.6901 -486.611ZM-28.1329 -531.344C-28.1223 -529.331 -30.6874 -530.52 -30.6738 -528.435C-31.8958 -530.183 -38.0616 -531.511 -36.1284 -533.46C-38.5158 -532.068 -43.1455 -536.264 -46.8856 -538.052C-39.9138 -534.599 -33.0803 -534.52 -28.1329 -531.344ZM-7.92434 -532.963C-8.46324 -532.078 -7.84793 -531.097 -6.58944 -530.214C-7.33484 -529.105 -9.76239 -530.443 -12.3393 -531.919C-9.97365 -532.088 -12.6163 -533.418 -10.2507 -533.587C-12.101 -534.877 -16.9719 -536.187 -15.0123 -537.49C-14.0144 -535.949 -10.7166 -534.43 -7.92434 -532.963ZM-20.9625 -538.827C-24.6142 -538.462 -25.4057 -540.227 -28.6493 -542.179C-24.9945 -542.472 -24.206 -540.779 -20.9625 -538.827ZM-64.3426 -541.218C-65.5481 -540.809 -67.4979 -541.017 -70.1977 -541.985C-69.9095 -543.722 -65.5588 -542.822 -64.3426 -541.218ZM-80.6664 -539.542C-83.7498 -539.344 -84.8223 -540.954 -89.5978 -541.692C-88.9536 -543.516 -82.0143 -540.853 -80.6664 -539.542ZM-105.321 -544.642C-103.812 -546.43 -100.946 -543.168 -97.3662 -543.531C-97.0478 -541.027 -102.719 -544.318 -105.321 -544.642ZM-86.1444 -545.141C-90.4244 -544.319 -92.4696 -545.098 -99.0454 -545.906C-97.1939 -546.342 -91.1235 -545.584 -97.3304 -547.918C-95.116 -550.022 -90.2798 -546.05 -86.1444 -545.141ZM-136.313 -551.783C-125.091 -549.871 -120.9 -551.121 -115.508 -551.127C-112.904 -550.73 -114.636 -549.149 -112.6 -548.586C-113.809 -551.772 -105.32 -549.891 -99.6597 -548.613C-100.585 -546.634 -100.541 -545.558 -101.686 -545.439C-102.664 -546.477 -106.647 -547.176 -108.429 -546.816C-105.611 -544.702 -112.192 -545.655 -112.564 -544.202C-114.759 -545.118 -114.71 -545.695 -113.224 -546.26C-121.726 -546.702 -131.655 -550.393 -140.079 -550.694C-139.819 -551.352 -137.889 -551.647 -139.794 -552.503C-138.471 -550.041 -143.622 -552.922 -143.413 -551.348C-142.161 -550.609 -142.499 -550.092 -143.492 -549.764C-146.111 -550.519 -148.731 -551.274 -151.416 -551.883C-152.297 -554.076 -146.563 -551.004 -146.627 -552.583C-151.618 -553.313 -159.331 -557.31 -161.109 -555.08C-156.175 -553.989 -154.097 -554.146 -151.706 -551.943C-151.852 -552.009 -151.996 -552.003 -152.142 -552.069C-156.49 -552.897 -160.973 -553.504 -165.593 -553.962C-165.631 -554.895 -166.094 -555.667 -166.772 -556.43C-166.701 -556.433 -166.701 -556.433 -166.626 -556.364C-164.256 -558.187 -161.083 -557.957 -157.824 -557.372C-154.562 -556.715 -151.279 -555.555 -148.351 -556.035C-145.705 -554.634 -145.96 -553.832 -145.35 -552.995C-143.19 -554.665 -132.703 -553.154 -130.445 -552.455C-130.219 -550.452 -135.574 -553.036 -136.313 -551.783ZM-79.8943 -554.025C-83.7779 -555.807 -85.7346 -554.433 -87.7608 -556.507C-88.384 -559.429 -77.8235 -556.123 -79.8943 -554.025ZM-90.2071 -556.55C-92.0328 -558.992 -96.7837 -560.882 -96.8985 -563.681C-92.5753 -561.701 -88.3957 -559.716 -90.2071 -556.55ZM-285.946 -573.184C-285.946 -573.184 -285.874 -573.187 -285.802 -573.189C-285.802 -573.189 -285.874 -573.187 -285.946 -573.184ZM-291.082 -575.705C-292.897 -576.134 -286.153 -576.482 -281.801 -577.308C-282.909 -574.53 -288.247 -574.959 -291.082 -575.705Z" fill="#002276"/>
</svg>
