<svg width="16" height="16" viewBox="0 0 16 16" fill="none" xmlns="http://www.w3.org/2000/svg">
<path d="M5.60058 8.00005C5.60058 6.67461 6.6748 5.59986 8.00029 5.59986C9.32578 5.59986 10.4006 6.67461 10.4006 8.00005C10.4006 9.32548 9.32578 10.4002 8.00029 10.4002C6.6748 10.4002 5.60058 9.32548 5.60058 8.00005ZM4.30303 8.00005C4.30303 10.042 5.95829 11.6972 8.00029 11.6972C10.0423 11.6972 11.6976 10.042 11.6976 8.00005C11.6976 5.95813 10.0423 4.30294 8.00029 4.30294C5.95829 4.30294 4.30309 5.95801 4.30309 8.00005H4.30303ZM10.9799 4.15634C10.9799 4.32723 11.0305 4.49429 11.1254 4.63641C11.2203 4.77854 11.3552 4.88933 11.513 4.95479C11.6709 5.02025 11.8446 5.03742 12.0122 5.00415C12.1798 4.97088 12.3338 4.88866 12.4547 4.76787C12.5756 4.64709 12.6579 4.49317 12.6913 4.32559C12.7247 4.158 12.7077 3.98427 12.6424 3.82637C12.577 3.66847 12.4663 3.53349 12.3243 3.43849C12.1822 3.3435 12.0152 3.29276 11.8443 3.29269H11.844C11.6149 3.2928 11.3953 3.38381 11.2333 3.54574C11.0712 3.70768 10.9801 3.92729 10.9799 4.15634ZM5.09137 13.8607C4.38938 13.8288 4.00782 13.7118 3.75425 13.6131C3.41809 13.4822 3.17823 13.3263 2.92605 13.0745C2.67386 12.8227 2.51776 12.583 2.38746 12.2469C2.28862 11.9935 2.17169 11.6118 2.13977 10.9098C2.10487 10.1509 2.0979 9.92291 2.0979 8.00016C2.0979 6.07742 2.10544 5.85007 2.13977 5.0905C2.17174 4.38853 2.28954 4.00762 2.38746 3.75343C2.51834 3.41728 2.67421 3.17743 2.92605 2.92526C3.17788 2.67309 3.41751 2.51699 3.75425 2.3867C4.0077 2.28786 4.38938 2.17093 5.09137 2.13902C5.85034 2.10411 6.07833 2.09714 8.00029 2.09714C9.92225 2.09714 10.1505 2.10457 10.9101 2.13913C11.6121 2.1711 11.993 2.28889 12.2472 2.38681C12.5834 2.5171 12.8232 2.67355 13.0754 2.92537C13.3276 3.1772 13.4831 3.41739 13.614 3.75355C13.7128 4.00699 13.8298 4.38864 13.8617 5.09061C13.8966 5.85019 13.9035 6.07753 13.9035 8.00028C13.9035 9.92302 13.8966 10.1504 13.8617 10.9099C13.8297 11.6119 13.7122 11.9935 13.614 12.247C13.4831 12.5832 13.3272 12.823 13.0754 13.0746C12.8236 13.3262 12.5834 13.4823 12.2472 13.6132C11.9937 13.712 11.6121 13.8289 10.9101 13.8608C10.1511 13.8958 9.92311 13.9027 8.00029 13.9027C6.07747 13.9027 5.85011 13.8958 5.09137 13.8608V13.8607ZM5.03176 0.843652C4.26524 0.878558 3.74146 1.00009 3.28404 1.17808C2.81061 1.36188 2.4093 1.60846 2.00856 2.00855C1.60782 2.40864 1.36186 2.81 1.17805 3.28399C1.00006 3.74168 0.878515 4.26515 0.843608 5.03163C0.808125 5.79933 0.800003 6.04476 0.800003 8.00005C0.800003 9.95534 0.808125 10.2008 0.843608 10.9685C0.878515 11.735 1.00006 12.2584 1.17805 12.7161C1.36186 13.1895 1.60788 13.5916 2.00856 13.9915C2.40924 14.3915 2.81004 14.6377 3.28404 14.822C3.74233 15 4.26524 15.1215 5.03176 15.1564C5.79988 15.1913 6.04492 15.2 8.00029 15.2C9.95566 15.2 10.2011 15.1919 10.9688 15.1564C11.7354 15.1215 12.2588 15 12.7165 14.822C13.19 14.6377 13.5913 14.3916 13.992 13.9915C14.3928 13.5915 14.6382 13.1895 14.8225 12.7161C15.0005 12.2584 15.1226 11.7349 15.157 10.9685C15.1919 10.2002 15.2 9.95534 15.2 8.00005C15.2 6.04476 15.1919 5.79933 15.157 5.03163C15.1221 4.26509 15.0005 3.74139 14.8225 3.28399C14.6382 2.81058 14.3921 2.40928 13.992 2.00855C13.5919 1.60783 13.19 1.36188 12.7171 1.17808C12.2588 1.00009 11.7353 0.877982 10.9694 0.843652C10.2016 0.808574 9.95623 0.800049 8.00115 0.800049C6.04608 0.800049 5.80017 0.80817 5.03204 0.843652" fill="white"/>
</svg>
