<svg width="28" height="28" viewBox="0 0 32 33" fill="none" xmlns="http://www.w3.org/2000/svg">
<path d="M16 27.3125C16 27.3125 3.5 20.3125 3.5 11.8125C3.5 10.3099 4.02062 8.85364 4.97328 7.69158C5.92593 6.52953 7.25178 5.73343 8.72525 5.43874C10.1987 5.14404 11.7288 5.36896 13.0551 6.07522C14.3814 6.78148 15.4221 7.92546 16 9.31251C16.5779 7.92546 17.6186 6.78148 18.9449 6.07522C20.2712 5.36896 21.8013 5.14404 23.2748 5.43874C24.7482 5.73343 26.0741 6.52953 27.0267 7.69158C27.9794 8.85364 28.5 10.3099 28.5 11.8125C28.5 20.3125 16 27.3125 16 27.3125Z" stroke="white" stroke-width="2" stroke-linecap="round" stroke-linejoin="round"/>
</svg>
