<svg width="24" height="25" viewBox="0 0 24 25" fill="none" xmlns="http://www.w3.org/2000/svg">
<path d="M5.25 22.375H18.75" stroke="#5F6C72" stroke-width="1.5" stroke-linecap="round" stroke-linejoin="round"/>
<path d="M19.5 10.375C19.5 17.125 12 22.375 12 22.375C12 22.375 4.5 17.125 4.5 10.375C4.5 8.38588 5.29018 6.47822 6.6967 5.0717C8.10322 3.66518 10.0109 2.875 12 2.875C13.9891 2.875 15.8968 3.66518 17.3033 5.0717C18.7098 6.47822 19.5 8.38588 19.5 10.375V10.375Z" stroke="#5F6C72" stroke-width="1.5" stroke-linecap="round" stroke-linejoin="round"/>
<path d="M12 13.375C13.6569 13.375 15 12.0319 15 10.375C15 8.71815 13.6569 7.375 12 7.375C10.3431 7.375 9 8.71815 9 10.375C9 12.0319 10.3431 13.375 12 13.375Z" stroke="#5F6C72" stroke-width="1.5" stroke-linecap="round" stroke-linejoin="round"/>
</svg>
