<svg width="261" height="201" viewBox="0 0 261 201" fill="none" xmlns="http://www.w3.org/2000/svg">
<g filter="url(#filter0_d_172_4451)">
<rect x="31.0691" y="29.1289" width="198.929" height="138.255" rx="4.81828" fill="white"/>
</g>
<path d="M120.031 65.0935C119.78 63.7293 120.692 62.4168 122.068 62.2326C130.921 61.0474 139.941 61.64 148.56 63.9836C157.151 66.3196 165.142 70.3401 172.038 75.7848C173.143 76.6568 173.236 78.2806 172.284 79.3191L161.53 91.0433C160.622 92.0334 159.098 92.1201 158.032 91.3053C153.52 87.8555 148.339 85.2977 142.784 83.7874C137.236 82.2789 131.442 81.8497 125.735 82.5154C124.381 82.6734 123.103 81.7893 122.856 80.4491L120.031 65.0935Z" fill="#C0F497"/>
<path d="M175.674 82.2044C176.651 81.2828 178.186 81.297 179.103 82.2762C184.265 87.7908 188.376 94.1541 191.237 101.072C194.083 107.951 195.642 115.258 195.85 122.652C195.889 124.027 194.754 125.129 193.379 125.113L177.074 124.925C175.699 124.909 174.606 123.781 174.54 122.407C174.314 117.716 173.279 113.088 171.471 108.717C169.669 104.36 167.129 100.33 163.961 96.79C163.022 95.7411 163.038 94.1223 164.063 93.1552L175.674 82.2044Z" fill="#36463D"/>
<path d="M85.035 83.688C83.982 82.7543 83.9103 81.1291 84.9212 80.1471C92.3577 72.9226 101.503 67.5544 111.566 64.5085C112.866 64.115 114.215 64.8898 114.582 66.1964L118.814 81.253C119.191 82.5933 118.392 83.9769 117.067 84.4071C110.855 86.4232 105.191 89.7652 100.496 94.1848C99.5182 95.1056 97.9935 95.1783 96.9898 94.2883L85.035 83.688Z" fill="#28A263"/>
<path d="M68.5036 123.673C67.1284 123.657 66.0227 122.529 66.0969 121.155C66.7662 108.769 71.2198 96.846 78.8949 86.8988C79.716 85.8346 81.244 85.6732 82.3028 86.4981L94.9422 96.3456C96.0518 97.2102 96.2171 98.819 95.382 99.9533C90.7388 106.261 87.9791 113.682 87.4068 121.402C87.3051 122.774 86.1838 123.877 84.8086 123.861L68.5036 123.673Z" fill="#2DDB81"/>
<path d="M112.272 115.406V101.936H113.135V115.406H112.272ZM114.761 106.246C114.712 105.786 114.505 105.428 114.14 105.172C113.779 104.916 113.309 104.788 112.73 104.788C112.323 104.788 111.974 104.849 111.683 104.972C111.392 105.095 111.169 105.262 111.015 105.472C110.86 105.683 110.781 105.923 110.778 106.193C110.778 106.417 110.829 106.612 110.93 106.777C111.036 106.942 111.178 107.082 111.357 107.198C111.536 107.31 111.734 107.405 111.951 107.482C112.169 107.559 112.388 107.624 112.609 107.677L113.619 107.929C114.026 108.024 114.417 108.152 114.793 108.313C115.171 108.475 115.51 108.678 115.808 108.924C116.11 109.169 116.348 109.466 116.524 109.813C116.699 110.16 116.787 110.567 116.787 111.034C116.787 111.665 116.625 112.221 116.303 112.702C115.98 113.179 115.513 113.552 114.903 113.822C114.296 114.089 113.561 114.222 112.698 114.222C111.86 114.222 111.132 114.092 110.515 113.833C109.901 113.573 109.42 113.194 109.073 112.696C108.729 112.198 108.543 111.591 108.515 110.876H110.436C110.464 111.251 110.58 111.563 110.783 111.812C110.987 112.061 111.251 112.247 111.578 112.37C111.907 112.493 112.276 112.554 112.683 112.554C113.107 112.554 113.479 112.491 113.798 112.365C114.121 112.235 114.373 112.056 114.556 111.828C114.738 111.597 114.831 111.327 114.835 111.018C114.831 110.737 114.749 110.506 114.587 110.323C114.426 110.137 114.2 109.983 113.909 109.86C113.621 109.734 113.284 109.622 112.898 109.524L111.672 109.208C110.785 108.98 110.083 108.634 109.568 108.171C109.056 107.705 108.8 107.086 108.8 106.314C108.8 105.679 108.971 105.123 109.315 104.646C109.662 104.169 110.134 103.799 110.731 103.536C111.327 103.269 112.002 103.136 112.756 103.136C113.521 103.136 114.191 103.269 114.766 103.536C115.345 103.799 115.799 104.165 116.129 104.635C116.459 105.102 116.629 105.639 116.639 106.246H114.761ZM121.872 114.206C121.17 114.206 120.542 114.075 119.988 113.812C119.434 113.545 118.994 113.18 118.667 112.717C118.345 112.254 118.173 111.725 118.152 111.128H120.046C120.081 111.57 120.272 111.932 120.619 112.212C120.967 112.489 121.384 112.628 121.872 112.628C122.254 112.628 122.594 112.54 122.892 112.365C123.191 112.189 123.426 111.946 123.597 111.633C123.769 111.321 123.854 110.965 123.85 110.565C123.854 110.158 123.768 109.797 123.592 109.481C123.417 109.166 123.177 108.918 122.871 108.74C122.566 108.557 122.215 108.466 121.819 108.466C121.496 108.462 121.179 108.522 120.867 108.645C120.555 108.768 120.307 108.929 120.125 109.129L118.362 108.84L118.925 103.283H125.176V104.914H120.54L120.23 107.771H120.293C120.493 107.536 120.776 107.342 121.14 107.187C121.505 107.03 121.905 106.951 122.34 106.951C122.992 106.951 123.575 107.105 124.087 107.414C124.599 107.719 125.002 108.14 125.297 108.676C125.592 109.213 125.739 109.827 125.739 110.518C125.739 111.23 125.574 111.865 125.244 112.423C124.918 112.977 124.464 113.414 123.882 113.733C123.303 114.049 122.633 114.206 121.872 114.206ZM127.011 112.06V110.507L131.583 103.283H132.877V105.493H132.088L129.01 110.371V110.455H135.392V112.06H127.011ZM132.151 114.059V111.586L132.172 110.892V103.283H134.014V114.059H132.151ZM137.172 114.059L141.755 104.988V104.914H136.435V103.283H143.775V104.951L139.198 114.059H137.172ZM148.892 114.206C148.376 114.203 147.873 114.113 147.382 113.938C146.891 113.759 146.449 113.47 146.056 113.07C145.663 112.667 145.351 112.132 145.119 111.465C144.888 110.795 144.774 109.966 144.777 108.976C144.777 108.054 144.875 107.231 145.072 106.509C145.268 105.786 145.551 105.176 145.919 104.678C146.287 104.176 146.731 103.794 147.25 103.531C147.773 103.267 148.357 103.136 149.002 103.136C149.679 103.136 150.279 103.269 150.802 103.536C151.328 103.802 151.752 104.167 152.075 104.63C152.398 105.09 152.598 105.609 152.675 106.188H150.754C150.656 105.774 150.454 105.444 150.149 105.198C149.848 104.949 149.465 104.825 149.002 104.825C148.255 104.825 147.68 105.149 147.276 105.798C146.876 106.447 146.675 107.338 146.671 108.471H146.745C146.917 108.163 147.14 107.898 147.413 107.677C147.687 107.456 147.995 107.286 148.339 107.166C148.686 107.044 149.053 106.982 149.439 106.982C150.07 106.982 150.637 107.133 151.138 107.435C151.644 107.736 152.043 108.152 152.338 108.682C152.633 109.208 152.778 109.811 152.775 110.492C152.778 111.2 152.617 111.837 152.291 112.402C151.964 112.963 151.51 113.405 150.928 113.728C150.346 114.05 149.667 114.21 148.892 114.206ZM148.881 112.628C149.264 112.628 149.606 112.535 149.907 112.349C150.209 112.163 150.447 111.912 150.623 111.597C150.798 111.281 150.884 110.927 150.881 110.534C150.884 110.148 150.8 109.799 150.628 109.487C150.46 109.175 150.226 108.927 149.928 108.745C149.63 108.562 149.29 108.471 148.907 108.471C148.623 108.471 148.359 108.526 148.113 108.634C147.867 108.743 147.653 108.894 147.471 109.087C147.289 109.276 147.145 109.497 147.04 109.75C146.938 109.999 146.885 110.265 146.882 110.55C146.885 110.925 146.973 111.27 147.145 111.586C147.317 111.902 147.553 112.154 147.855 112.344C148.157 112.533 148.499 112.628 148.881 112.628Z" fill="#1C1C1C"/>
<path d="M107.656 126.506C107.633 126.305 107.536 126.148 107.366 126.037C107.197 125.926 106.989 125.87 106.743 125.87C106.562 125.87 106.405 125.899 106.27 125.958C106.136 126.016 106.031 126.096 105.956 126.198C105.882 126.3 105.845 126.416 105.845 126.546C105.845 126.654 105.87 126.748 105.922 126.826C105.975 126.903 106.043 126.967 106.125 127.019C106.207 127.069 106.293 127.111 106.383 127.144C106.473 127.176 106.556 127.201 106.631 127.221L107.045 127.333C107.151 127.36 107.268 127.399 107.398 127.448C107.529 127.497 107.654 127.564 107.774 127.649C107.894 127.732 107.994 127.839 108.072 127.97C108.15 128.102 108.189 128.262 108.189 128.453C108.189 128.673 108.131 128.872 108.016 129.049C107.902 129.227 107.735 129.368 107.515 129.472C107.297 129.577 107.031 129.629 106.719 129.629C106.427 129.629 106.175 129.582 105.962 129.488C105.75 129.394 105.583 129.263 105.461 129.095C105.341 128.927 105.272 128.731 105.256 128.509H105.765C105.778 128.662 105.83 128.79 105.92 128.89C106.011 128.99 106.127 129.064 106.266 129.113C106.406 129.16 106.557 129.184 106.719 129.184C106.907 129.184 107.076 129.154 107.225 129.093C107.375 129.031 107.494 128.945 107.581 128.835C107.668 128.723 107.712 128.594 107.712 128.445C107.712 128.31 107.674 128.2 107.599 128.115C107.523 128.031 107.424 127.962 107.301 127.909C107.178 127.856 107.045 127.809 106.901 127.77L106.401 127.627C106.083 127.535 105.831 127.405 105.646 127.235C105.46 127.066 105.368 126.844 105.368 126.57C105.368 126.342 105.429 126.143 105.552 125.974C105.677 125.803 105.844 125.67 106.053 125.576C106.264 125.481 106.499 125.433 106.758 125.433C107.021 125.433 107.254 125.48 107.458 125.574C107.662 125.667 107.823 125.794 107.943 125.956C108.063 126.117 108.127 126.301 108.133 126.506H107.656ZM108.824 130.702V126.506H109.277V126.991H109.332C109.367 126.938 109.414 126.87 109.475 126.788C109.538 126.705 109.626 126.631 109.742 126.566C109.858 126.499 110.016 126.466 110.214 126.466C110.471 126.466 110.698 126.531 110.894 126.659C111.09 126.788 111.243 126.97 111.353 127.205C111.463 127.441 111.518 127.719 111.518 128.04C111.518 128.363 111.463 128.643 111.353 128.88C111.243 129.116 111.091 129.299 110.896 129.429C110.701 129.557 110.477 129.621 110.222 129.621C110.026 129.621 109.869 129.589 109.751 129.524C109.634 129.458 109.543 129.383 109.479 129.3C109.416 129.215 109.367 129.145 109.332 129.089H109.292V130.702H108.824ZM109.285 128.032C109.285 128.262 109.318 128.466 109.386 128.642C109.453 128.817 109.552 128.954 109.682 129.053C109.812 129.151 109.971 129.2 110.159 129.2C110.355 129.2 110.518 129.149 110.649 129.045C110.782 128.941 110.881 128.8 110.948 128.624C111.015 128.447 111.049 128.249 111.049 128.032C111.049 127.817 111.016 127.624 110.949 127.452C110.885 127.278 110.786 127.141 110.653 127.041C110.522 126.939 110.357 126.888 110.159 126.888C109.968 126.888 109.808 126.936 109.678 127.033C109.548 127.128 109.45 127.262 109.384 127.434C109.318 127.605 109.285 127.804 109.285 128.032ZM113.401 129.621C113.107 129.621 112.853 129.557 112.64 129.427C112.428 129.296 112.264 129.113 112.149 128.878C112.035 128.643 111.978 128.368 111.978 128.056C111.978 127.743 112.035 127.468 112.149 127.229C112.264 126.99 112.424 126.803 112.63 126.669C112.836 126.534 113.077 126.466 113.353 126.466C113.512 126.466 113.669 126.493 113.824 126.546C113.979 126.599 114.12 126.685 114.247 126.804C114.374 126.922 114.475 127.078 114.551 127.273C114.626 127.468 114.664 127.707 114.664 127.992V128.191H112.312V127.786H114.187C114.187 127.613 114.153 127.46 114.084 127.325C114.016 127.19 113.92 127.083 113.794 127.005C113.669 126.927 113.522 126.888 113.353 126.888C113.166 126.888 113.005 126.934 112.868 127.027C112.733 127.118 112.629 127.237 112.556 127.384C112.483 127.531 112.447 127.689 112.447 127.857V128.127C112.447 128.358 112.487 128.553 112.566 128.713C112.647 128.872 112.759 128.994 112.902 129.077C113.045 129.159 113.211 129.2 113.401 129.2C113.524 129.2 113.635 129.183 113.734 129.149C113.835 129.113 113.922 129.06 113.995 128.99C114.067 128.918 114.124 128.829 114.164 128.723L114.617 128.851C114.569 129.004 114.489 129.139 114.376 129.256C114.264 129.371 114.124 129.461 113.959 129.526C113.793 129.59 113.607 129.621 113.401 129.621ZM115.734 127.722V129.558H115.266V126.506H115.719V126.983H115.758C115.83 126.828 115.938 126.703 116.084 126.609C116.23 126.514 116.418 126.466 116.648 126.466C116.855 126.466 117.036 126.509 117.191 126.594C117.346 126.677 117.466 126.804 117.552 126.975C117.638 127.145 117.682 127.359 117.682 127.619V129.558H117.213V127.651C117.213 127.411 117.15 127.224 117.026 127.09C116.901 126.955 116.731 126.888 116.513 126.888C116.364 126.888 116.23 126.92 116.112 126.985C115.995 127.05 115.903 127.145 115.836 127.269C115.768 127.394 115.734 127.545 115.734 127.722ZM119.579 129.621C119.324 129.621 119.1 129.557 118.905 129.429C118.711 129.299 118.558 129.116 118.448 128.88C118.338 128.643 118.283 128.363 118.283 128.04C118.283 127.719 118.338 127.441 118.448 127.205C118.558 126.97 118.711 126.788 118.907 126.659C119.103 126.531 119.33 126.466 119.587 126.466C119.785 126.466 119.942 126.499 120.058 126.566C120.174 126.631 120.263 126.705 120.324 126.788C120.386 126.87 120.434 126.938 120.469 126.991H120.509V125.489H120.978V129.558H120.525V129.089H120.469C120.434 129.145 120.385 129.215 120.322 129.3C120.258 129.383 120.168 129.458 120.05 129.524C119.932 129.589 119.775 129.621 119.579 129.621ZM119.642 129.2C119.83 129.2 119.989 129.151 120.119 129.053C120.249 128.954 120.348 128.817 120.415 128.642C120.483 128.466 120.517 128.262 120.517 128.032C120.517 127.804 120.483 127.605 120.417 127.434C120.351 127.262 120.253 127.128 120.123 127.033C119.993 126.936 119.833 126.888 119.642 126.888C119.444 126.888 119.278 126.939 119.146 127.041C119.015 127.141 118.916 127.278 118.85 127.452C118.785 127.624 118.752 127.817 118.752 128.032C118.752 128.249 118.785 128.447 118.852 128.624C118.919 128.8 119.019 128.941 119.15 129.045C119.282 129.149 119.446 129.2 119.642 129.2ZM121.789 129.558V126.506H122.258V129.558H121.789ZM122.028 125.997C121.937 125.997 121.858 125.966 121.791 125.904C121.727 125.842 121.694 125.767 121.694 125.68C121.694 125.592 121.727 125.517 121.791 125.455C121.858 125.393 121.937 125.362 122.028 125.362C122.119 125.362 122.197 125.393 122.262 125.455C122.329 125.517 122.362 125.592 122.362 125.68C122.362 125.767 122.329 125.842 122.262 125.904C122.197 125.966 122.119 125.997 122.028 125.997ZM123.474 127.722V129.558H123.005V126.506H123.458V126.983H123.498C123.57 126.828 123.678 126.703 123.824 126.609C123.97 126.514 124.158 126.466 124.388 126.466C124.595 126.466 124.776 126.509 124.931 126.594C125.085 126.677 125.206 126.804 125.292 126.975C125.378 127.145 125.421 127.359 125.421 127.619V129.558H124.952V127.651C124.952 127.411 124.89 127.224 124.766 127.09C124.641 126.955 124.47 126.888 124.253 126.888C124.103 126.888 123.97 126.92 123.852 126.985C123.735 127.05 123.643 127.145 123.575 127.269C123.508 127.394 123.474 127.545 123.474 127.722ZM127.398 130.766C127.171 130.766 126.977 130.737 126.814 130.678C126.651 130.621 126.515 130.546 126.407 130.452C126.299 130.359 126.214 130.26 126.15 130.154L126.524 129.892C126.566 129.947 126.62 130.011 126.685 130.082C126.75 130.155 126.838 130.218 126.951 130.271C127.065 130.325 127.214 130.353 127.398 130.353C127.644 130.353 127.848 130.293 128.008 130.174C128.168 130.055 128.248 129.868 128.248 129.613V128.994H128.209C128.174 129.049 128.125 129.118 128.062 129.2C127.999 129.281 127.909 129.353 127.791 129.417C127.675 129.479 127.517 129.51 127.319 129.51C127.072 129.51 126.851 129.452 126.655 129.335C126.46 129.219 126.306 129.049 126.192 128.827C126.079 128.604 126.023 128.334 126.023 128.016C126.023 127.704 126.078 127.431 126.188 127.2C126.298 126.966 126.451 126.786 126.647 126.659C126.843 126.531 127.07 126.466 127.326 126.466C127.525 126.466 127.683 126.499 127.799 126.566C127.917 126.631 128.007 126.705 128.07 126.788C128.133 126.87 128.182 126.938 128.217 126.991H128.264V126.506H128.717V129.645C128.717 129.908 128.658 130.121 128.538 130.285C128.421 130.451 128.262 130.572 128.062 130.649C127.863 130.727 127.642 130.766 127.398 130.766ZM127.382 129.089C127.57 129.089 127.729 129.046 127.859 128.96C127.989 128.874 128.087 128.75 128.155 128.588C128.223 128.427 128.256 128.233 128.256 128.008C128.256 127.788 128.223 127.594 128.157 127.426C128.091 127.258 127.993 127.126 127.863 127.031C127.733 126.935 127.573 126.888 127.382 126.888C127.183 126.888 127.018 126.938 126.885 127.039C126.754 127.139 126.656 127.274 126.589 127.444C126.524 127.613 126.492 127.802 126.492 128.008C126.492 128.22 126.525 128.407 126.591 128.57C126.659 128.732 126.758 128.859 126.889 128.952C127.022 129.043 127.186 129.089 127.382 129.089ZM130.766 125.926V125.489H133.818V125.926H132.539V129.558H132.046V125.926H130.766ZM134.872 127.722V129.558H134.403V125.489H134.872V126.983H134.912C134.983 126.825 135.091 126.7 135.234 126.607C135.378 126.513 135.57 126.466 135.81 126.466C136.018 126.466 136.2 126.508 136.356 126.592C136.512 126.674 136.634 126.8 136.72 126.971C136.807 127.141 136.851 127.356 136.851 127.619V129.558H136.382V127.651C136.382 127.408 136.319 127.221 136.193 127.088C136.069 126.954 135.896 126.888 135.675 126.888C135.521 126.888 135.383 126.92 135.261 126.985C135.141 127.05 135.045 127.145 134.975 127.269C134.906 127.394 134.872 127.545 134.872 127.722ZM137.597 129.558V126.506H138.066V129.558H137.597ZM137.835 125.997C137.744 125.997 137.665 125.966 137.599 125.904C137.534 125.842 137.501 125.767 137.501 125.68C137.501 125.592 137.534 125.517 137.599 125.455C137.665 125.393 137.744 125.362 137.835 125.362C137.927 125.362 138.005 125.393 138.07 125.455C138.136 125.517 138.169 125.592 138.169 125.68C138.169 125.767 138.136 125.842 138.07 125.904C138.005 125.966 137.927 125.997 137.835 125.997ZM140.974 127.19L140.553 127.309C140.526 127.239 140.487 127.17 140.436 127.104C140.385 127.037 140.317 126.981 140.229 126.937C140.142 126.894 140.03 126.872 139.893 126.872C139.707 126.872 139.551 126.915 139.426 127.001C139.303 127.086 139.242 127.194 139.242 127.325C139.242 127.441 139.284 127.533 139.369 127.601C139.454 127.668 139.586 127.725 139.766 127.77L140.219 127.881C140.492 127.947 140.695 128.049 140.829 128.185C140.963 128.32 141.03 128.494 141.03 128.708C141.03 128.882 140.979 129.039 140.879 129.176C140.779 129.314 140.64 129.423 140.462 129.502C140.283 129.582 140.075 129.621 139.838 129.621C139.526 129.621 139.269 129.554 139.065 129.419C138.861 129.284 138.732 129.086 138.677 128.827L139.122 128.715C139.165 128.88 139.245 129.003 139.363 129.085C139.482 129.167 139.638 129.208 139.83 129.208C140.048 129.208 140.222 129.162 140.35 129.069C140.48 128.975 140.545 128.862 140.545 128.731C140.545 128.625 140.508 128.537 140.434 128.465C140.36 128.392 140.246 128.338 140.092 128.302L139.583 128.183C139.304 128.117 139.099 128.014 138.968 127.875C138.838 127.735 138.773 127.559 138.773 127.349C138.773 127.176 138.821 127.024 138.918 126.892C139.016 126.759 139.149 126.655 139.317 126.58C139.487 126.504 139.679 126.466 139.893 126.466C140.195 126.466 140.432 126.533 140.605 126.665C140.778 126.798 140.901 126.972 140.974 127.19ZM143.888 129.558L142.775 125.489H143.276L144.126 128.803H144.166L145.032 125.489H145.589L146.455 128.803H146.495L147.345 125.489H147.846L146.733 129.558H146.225L145.327 126.315H145.295L144.397 129.558H143.888ZM149.28 129.621C148.986 129.621 148.732 129.557 148.519 129.427C148.307 129.296 148.143 129.113 148.028 128.878C147.914 128.643 147.857 128.368 147.857 128.056C147.857 127.743 147.914 127.468 148.028 127.229C148.143 126.99 148.303 126.803 148.509 126.669C148.715 126.534 148.956 126.466 149.232 126.466C149.391 126.466 149.548 126.493 149.703 126.546C149.858 126.599 149.999 126.685 150.126 126.804C150.253 126.922 150.355 127.078 150.43 127.273C150.506 127.468 150.543 127.707 150.543 127.992V128.191H148.191V127.786H150.066C150.066 127.613 150.032 127.46 149.963 127.325C149.896 127.19 149.799 127.083 149.673 127.005C149.549 126.927 149.402 126.888 149.232 126.888C149.045 126.888 148.884 126.934 148.747 127.027C148.612 127.118 148.508 127.237 148.435 127.384C148.362 127.531 148.326 127.689 148.326 127.857V128.127C148.326 128.358 148.366 128.553 148.445 128.713C148.526 128.872 148.638 128.994 148.781 129.077C148.924 129.159 149.09 129.2 149.28 129.2C149.403 129.2 149.514 129.183 149.613 129.149C149.714 129.113 149.801 129.06 149.874 128.99C149.947 128.918 150.003 128.829 150.043 128.723L150.496 128.851C150.448 129.004 150.368 129.139 150.255 129.256C150.143 129.371 150.004 129.461 149.838 129.526C149.672 129.59 149.486 129.621 149.28 129.621ZM152.424 129.621C152.13 129.621 151.876 129.557 151.663 129.427C151.451 129.296 151.288 129.113 151.172 128.878C151.059 128.643 151.002 128.368 151.002 128.056C151.002 127.743 151.059 127.468 151.172 127.229C151.288 126.99 151.448 126.803 151.653 126.669C151.86 126.534 152.101 126.466 152.376 126.466C152.535 126.466 152.692 126.493 152.847 126.546C153.002 126.599 153.143 126.685 153.271 126.804C153.398 126.922 153.499 127.078 153.575 127.273C153.65 127.468 153.688 127.707 153.688 127.992V128.191H151.335V127.786H153.211C153.211 127.613 153.176 127.46 153.108 127.325C153.04 127.19 152.943 127.083 152.818 127.005C152.693 126.927 152.546 126.888 152.376 126.888C152.19 126.888 152.028 126.934 151.892 127.027C151.757 127.118 151.653 127.237 151.58 127.384C151.507 127.531 151.47 127.689 151.47 127.857V128.127C151.47 128.358 151.51 128.553 151.59 128.713C151.67 128.872 151.782 128.994 151.925 129.077C152.069 129.159 152.235 129.2 152.424 129.2C152.547 129.2 152.659 129.183 152.758 129.149C152.859 129.113 152.945 129.06 153.018 128.99C153.091 128.918 153.147 128.829 153.187 128.723L153.64 128.851C153.592 129.004 153.512 129.139 153.4 129.256C153.287 129.371 153.148 129.461 152.982 129.526C152.817 129.59 152.631 129.621 152.424 129.621ZM154.726 128.445L154.718 127.865H154.814L156.149 126.506H156.729L155.306 127.945H155.267L154.726 128.445ZM154.289 129.558V125.489H154.758V129.558H154.289ZM156.228 129.558L155.036 128.048L155.37 127.722L156.824 129.558H156.228Z" fill="#A1A1A1"/>
<defs>
<filter id="filter0_d_172_4451" x="0.352547" y="0.821502" width="260.362" height="199.688" filterUnits="userSpaceOnUse" color-interpolation-filters="sRGB">
<feFlood flood-opacity="0" result="BackgroundImageFix"/>
<feColorMatrix in="SourceAlpha" type="matrix" values="0 0 0 0 0 0 0 0 0 0 0 0 0 0 0 0 0 0 127 0" result="hardAlpha"/>
<feOffset dy="2.40914"/>
<feGaussianBlur stdDeviation="15.3583"/>
<feComposite in2="hardAlpha" operator="out"/>
<feColorMatrix type="matrix" values="0 0 0 0 0.691667 0 0 0 0 0.691667 0 0 0 0 0.691667 0 0 0 0.05 0"/>
<feBlend mode="normal" in2="BackgroundImageFix" result="effect1_dropShadow_172_4451"/>
<feBlend mode="normal" in="SourceGraphic" in2="effect1_dropShadow_172_4451" result="shape"/>
</filter>
</defs>
</svg>
