<svg width="28" height="29" viewBox="0 0 28 29" fill="none" xmlns="http://www.w3.org/2000/svg">
<path d="M17.4344 5C18.9185 5.39832 20.2718 6.17999 21.3584 7.26659C22.445 8.35318 23.2267 9.70647 23.625 11.1906" stroke="#191C1F" stroke-width="1.5" stroke-linecap="round" stroke-linejoin="round"/>
<path d="M16.5266 8.37964C17.4192 8.61671 18.2333 9.08553 18.8864 9.73859C19.5394 10.3917 20.0082 11.2058 20.2453 12.0984" stroke="#191C1F" stroke-width="1.5" stroke-linecap="round" stroke-linejoin="round"/>
<path d="M10.1172 14.2749C11.0176 16.1343 12.5211 17.634 14.3828 18.5296C14.5201 18.5946 14.672 18.6228 14.8235 18.6113C14.975 18.5998 15.1209 18.549 15.2469 18.464L17.9812 16.6374C18.1021 16.5555 18.2417 16.5055 18.387 16.4921C18.5324 16.4787 18.6788 16.5024 18.8125 16.5609L23.9313 18.7593C24.1062 18.8321 24.2524 18.9604 24.3472 19.1244C24.4421 19.2885 24.4804 19.4792 24.4563 19.6671C24.294 20.9334 23.6759 22.0972 22.7177 22.9407C21.7594 23.7842 20.5266 24.2496 19.25 24.2499C15.3049 24.2499 11.5214 22.6827 8.73179 19.8931C5.94218 17.1035 4.375 13.32 4.375 9.37491C4.37529 8.09829 4.84073 6.8655 5.68425 5.90724C6.52776 4.94898 7.69154 4.3309 8.95781 4.16866C9.14576 4.14452 9.33643 4.18283 9.50047 4.2777C9.66451 4.37256 9.79281 4.51872 9.86562 4.69366L12.0641 9.82335C12.1212 9.95498 12.1451 10.0987 12.1337 10.2417C12.1223 10.3848 12.0758 10.5228 11.9984 10.6437L10.1719 13.4218C10.0906 13.5474 10.0428 13.6919 10.0333 13.8412C10.0237 13.9906 10.0526 14.1399 10.1172 14.2749V14.2749Z" stroke="#191C1F" stroke-width="1.5" stroke-linecap="round" stroke-linejoin="round"/>
</svg>
