<svg width="80" height="80" viewBox="0 0 80 80" fill="none" xmlns="http://www.w3.org/2000/svg">
<path opacity="0.24" d="M6.66675 42.9334V37.0668C6.66675 33.6001 9.50008 30.7334 13.0001 30.7334C19.0334 30.7334 21.5001 26.4668 18.4667 21.2334C16.7334 18.2334 17.7667 14.3334 20.8001 12.6001L26.5667 9.30011C29.2001 7.73345 32.6001 8.66678 34.1667 11.3001L34.5334 11.9334C37.5334 17.1668 42.4667 17.1668 45.5001 11.9334L45.8667 11.3001C47.4334 8.66678 50.8334 7.73345 53.4668 9.30011L59.2334 12.6001C62.2668 14.3334 63.3001 18.2334 61.5667 21.2334C58.5334 26.4668 61.0001 30.7334 67.0334 30.7334C70.5001 30.7334 73.3668 33.5668 73.3668 37.0668V42.9334C73.3668 46.4001 70.5334 49.2668 67.0334 49.2668C61.0001 49.2668 58.5334 53.5334 61.5667 58.7668C63.3001 61.8001 62.2668 65.6668 59.2334 67.4001L53.4668 70.7001C50.8334 72.2668 47.4334 71.3335 45.8667 68.7001L45.5001 68.0668C42.5001 62.8335 37.5667 62.8335 34.5334 68.0668L34.1667 68.7001C32.6001 71.3335 29.2001 72.2668 26.5667 70.7001L20.8001 67.4001C17.7667 65.6668 16.7334 61.7668 18.4667 58.7668C21.5001 53.5334 19.0334 49.2668 13.0001 49.2668C9.50008 49.2668 6.66675 46.4001 6.66675 42.9334Z" fill="#FC9A30"/>
<path d="M40.0001 50.8334C45.9832 50.8334 50.8334 45.9832 50.8334 40.0001C50.8334 34.017 45.9832 29.1667 40.0001 29.1667C34.017 29.1667 29.1667 34.017 29.1667 40.0001C29.1667 45.9832 34.017 50.8334 40.0001 50.8334Z" fill="#FC9A30"/>
</svg>
