<svg width="104" height="20" viewBox="0 0 104 20" fill="none" xmlns="http://www.w3.org/2000/svg">
<path d="M10.3443 14.9012L14.2849 17.3975C14.7887 17.7162 15.4137 17.2418 15.2643 16.6537L14.1262 12.1756C14.094 12.0508 14.0977 11.9196 14.1369 11.7968C14.176 11.6741 14.249 11.5649 14.3474 11.4818L17.8812 8.54121C18.3449 8.15496 18.1062 7.38434 17.5093 7.34559L12.8949 7.04559C12.7707 7.03677 12.6515 6.99285 12.5513 6.91894C12.451 6.84503 12.3738 6.74416 12.3287 6.62809L10.6074 2.29434C10.5605 2.17117 10.4774 2.06517 10.3689 1.99037C10.2604 1.91557 10.1317 1.87551 9.99992 1.87551C9.86814 1.87551 9.73947 1.91557 9.63098 1.99037C9.52248 2.06517 9.43929 2.17117 9.39242 2.29434L7.67117 6.62809C7.62611 6.74428 7.54896 6.84528 7.44871 6.9193C7.34845 6.99333 7.22923 7.03734 7.10492 7.04621L2.49054 7.34621C1.89429 7.38434 1.65429 8.15496 2.11867 8.54121L5.65242 11.4825C5.75074 11.5655 5.82365 11.6746 5.86278 11.7972C5.90192 11.9198 5.90569 12.0509 5.87367 12.1756L4.81867 16.3287C4.63929 17.0343 5.38992 17.6037 5.99367 17.2206L9.65617 14.9012C9.75911 14.8358 9.87856 14.801 10.0005 14.801C10.1225 14.801 10.242 14.8358 10.3449 14.9012H10.3443Z" fill="#FF8A00"/>
<path d="M31.3443 14.9012L35.2849 17.3975C35.7887 17.7162 36.4137 17.2418 36.2643 16.6537L35.1262 12.1756C35.094 12.0508 35.0977 11.9196 35.1369 11.7968C35.176 11.6741 35.249 11.5649 35.3474 11.4818L38.8812 8.54121C39.3449 8.15496 39.1062 7.38434 38.5093 7.34559L33.8949 7.04559C33.7707 7.03677 33.6515 6.99285 33.5513 6.91894C33.451 6.84503 33.3738 6.74416 33.3287 6.62809L31.6074 2.29434C31.5605 2.17117 31.4774 2.06517 31.3689 1.99037C31.2604 1.91557 31.1317 1.87551 30.9999 1.87551C30.8681 1.87551 30.7395 1.91557 30.631 1.99037C30.5225 2.06517 30.4393 2.17117 30.3924 2.29434L28.6712 6.62809C28.6261 6.74428 28.549 6.84528 28.4487 6.9193C28.3485 6.99333 28.2292 7.03734 28.1049 7.04621L23.4905 7.34621C22.8943 7.38434 22.6543 8.15496 23.1187 8.54121L26.6524 11.4825C26.7507 11.5655 26.8236 11.6746 26.8628 11.7972C26.9019 11.9198 26.9057 12.0509 26.8737 12.1756L25.8187 16.3287C25.6393 17.0343 26.3899 17.6037 26.9937 17.2206L30.6562 14.9012C30.7591 14.8358 30.8786 14.801 31.0005 14.801C31.1225 14.801 31.242 14.8358 31.3449 14.9012H31.3443Z" fill="#FF8A00"/>
<path d="M52.3443 14.9012L56.2849 17.3975C56.7887 17.7162 57.4137 17.2418 57.2643 16.6537L56.1262 12.1756C56.094 12.0508 56.0977 11.9196 56.1369 11.7968C56.176 11.6741 56.249 11.5649 56.3474 11.4818L59.8812 8.54121C60.3449 8.15496 60.1062 7.38434 59.5093 7.34559L54.8949 7.04559C54.7707 7.03677 54.6515 6.99285 54.5513 6.91894C54.451 6.84503 54.3738 6.74416 54.3287 6.62809L52.6074 2.29434C52.5605 2.17117 52.4774 2.06517 52.3689 1.99037C52.2604 1.91557 52.1317 1.87551 51.9999 1.87551C51.8681 1.87551 51.7395 1.91557 51.631 1.99037C51.5225 2.06517 51.4393 2.17117 51.3924 2.29434L49.6712 6.62809C49.6261 6.74428 49.549 6.84528 49.4487 6.9193C49.3485 6.99333 49.2292 7.03734 49.1049 7.04621L44.4905 7.34621C43.8943 7.38434 43.6543 8.15496 44.1187 8.54121L47.6524 11.4825C47.7507 11.5655 47.8236 11.6746 47.8628 11.7972C47.9019 11.9198 47.9057 12.0509 47.8737 12.1756L46.8187 16.3287C46.6393 17.0343 47.3899 17.6037 47.9937 17.2206L51.6562 14.9012C51.7591 14.8358 51.8786 14.801 52.0005 14.801C52.1225 14.801 52.242 14.8358 52.3449 14.9012H52.3443Z" fill="#FF8A00"/>
<path d="M73.3443 14.9012L77.2849 17.3975C77.7887 17.7162 78.4137 17.2418 78.2643 16.6537L77.1262 12.1756C77.094 12.0508 77.0977 11.9196 77.1369 11.7968C77.176 11.6741 77.249 11.5649 77.3474 11.4818L80.8812 8.54121C81.3449 8.15496 81.1062 7.38434 80.5093 7.34559L75.8949 7.04559C75.7707 7.03677 75.6515 6.99285 75.5513 6.91894C75.451 6.84503 75.3738 6.74416 75.3287 6.62809L73.6074 2.29434C73.5605 2.17117 73.4774 2.06517 73.3689 1.99037C73.2604 1.91557 73.1317 1.87551 72.9999 1.87551C72.8681 1.87551 72.7395 1.91557 72.631 1.99037C72.5225 2.06517 72.4393 2.17117 72.3924 2.29434L70.6712 6.62809C70.6261 6.74428 70.549 6.84528 70.4487 6.9193C70.3485 6.99333 70.2292 7.03734 70.1049 7.04621L65.4905 7.34621C64.8943 7.38434 64.6543 8.15496 65.1187 8.54121L68.6524 11.4825C68.7507 11.5655 68.8236 11.6746 68.8628 11.7972C68.9019 11.9198 68.9057 12.0509 68.8737 12.1756L67.8187 16.3287C67.6393 17.0343 68.3899 17.6037 68.9937 17.2206L72.6562 14.9012C72.7591 14.8358 72.8786 14.801 73.0005 14.801C73.1225 14.801 73.242 14.8358 73.3449 14.9012H73.3443Z" fill="#FF8A00"/>
<path d="M94.3443 14.9012L98.2849 17.3975C98.7887 17.7162 99.4137 17.2418 99.2643 16.6537L98.1262 12.1756C98.094 12.0508 98.0977 11.9196 98.1369 11.7968C98.176 11.6741 98.249 11.5649 98.3474 11.4818L101.881 8.54121C102.345 8.15496 102.106 7.38434 101.509 7.34559L96.8949 7.04559C96.7707 7.03677 96.6515 6.99285 96.5513 6.91894C96.451 6.84503 96.3738 6.74416 96.3287 6.62809L94.6074 2.29434C94.5605 2.17117 94.4774 2.06517 94.3689 1.99037C94.2604 1.91557 94.1317 1.87551 93.9999 1.87551C93.8681 1.87551 93.7395 1.91557 93.631 1.99037C93.5225 2.06517 93.4393 2.17117 93.3924 2.29434L91.6712 6.62809C91.6261 6.74428 91.549 6.84528 91.4487 6.9193C91.3485 6.99333 91.2292 7.03734 91.1049 7.04621L86.4905 7.34621C85.8943 7.38434 85.6543 8.15496 86.1187 8.54121L89.6524 11.4825C89.7507 11.5655 89.8236 11.6746 89.8628 11.7972C89.9019 11.9198 89.9057 12.0509 89.8737 12.1756L88.8187 16.3287C88.6393 17.0343 89.3899 17.6037 89.9937 17.2206L93.6562 14.9012C93.7591 14.8358 93.8786 14.801 94.0005 14.801C94.1225 14.801 94.242 14.8358 94.3449 14.9012H94.3443Z" fill="#FF8A00"/>
</svg>
