<svg width="24" height="25" viewBox="0 0 24 25" fill="none" xmlns="http://www.w3.org/2000/svg">
<path d="M21.1406 13.3751H18.1406C17.7428 13.3751 17.3613 13.5331 17.08 13.8144C16.7987 14.0957 16.6406 14.4772 16.6406 14.8751V18.6251C16.6406 19.0229 16.7987 19.4044 17.08 19.6857C17.3613 19.967 17.7428 20.1251 18.1406 20.1251H19.6406C20.0384 20.1251 20.42 19.967 20.7013 19.6857C20.9826 19.4044 21.1406 19.0229 21.1406 18.6251V13.3751ZM21.1406 13.3751C21.1407 12.1868 20.9054 11.0104 20.4484 9.91351C19.9915 8.81666 19.3218 7.82116 18.4781 6.98444C17.6344 6.14773 16.6334 5.48636 15.5328 5.03851C14.4322 4.59065 13.2538 4.36517 12.0656 4.37507C10.8782 4.36641 9.70083 4.59281 8.60132 5.04123C7.5018 5.48964 6.50189 6.1512 5.6592 6.98779C4.81651 7.82438 4.1477 8.81946 3.69131 9.91569C3.23492 11.0119 2.99997 12.1876 3 13.3751V18.6251C3 19.0229 3.15804 19.4044 3.43934 19.6857C3.72064 19.967 4.10218 20.1251 4.5 20.1251H6C6.39782 20.1251 6.77936 19.967 7.06066 19.6857C7.34196 19.4044 7.5 19.0229 7.5 18.6251V14.8751C7.5 14.4772 7.34196 14.0957 7.06066 13.8144C6.77936 13.5331 6.39782 13.3751 6 13.3751H3" stroke="#5F6C72" stroke-width="1.5" stroke-linecap="round" stroke-linejoin="round"/>
</svg>
